<svg id="Layer_1" data-name="Layer 1" xmlns="http://www.w3.org/2000/svg" viewBox="0 0 60 45"><defs><style>.cls-1{fill:#161616;}.cls-2{fill:#231f20;}</style></defs><path class="cls-1" d="M35.1,20.94a1.75,1.75,0,0,0-1.78-1.4,2.26,2.26,0,0,0-2.19,2.55c0,1.28.65,2.56,2.19,2.56a1.91,1.91,0,0,0,1.87-1.86h.55a2.38,2.38,0,0,1-2.42,2.34,2.77,2.77,0,0,1-2.75-3,2.76,2.76,0,0,1,2.75-3,2.23,2.23,0,0,1,2.34,1.88Z"/><path class="cls-1" d="M36.42,20.8h.48v1h0a1.56,1.56,0,0,1,1.59-1v.51a1.45,1.45,0,0,0-1.56,1.51V25h-.52Z"/><path class="cls-1" d="M39.08,23a1.49,1.49,0,0,0,1.39,1.65,1.29,1.29,0,0,0,1.32-1.07h.51a1.72,1.72,0,0,1-1.83,1.51c-1.34,0-1.9-1-1.9-2.23a2,2,0,0,1,1.9-2.22c1.35,0,1.89,1.18,1.85,2.36Zm2.72-.43a1.4,1.4,0,0,0-1.33-1.5,1.49,1.49,0,0,0-1.39,1.5Z"/><path class="cls-1" d="M42.89,22.09c0-1,.75-1.41,1.71-1.41.74,0,1.55.22,1.55,1.35v2.23c0,.2.09.31.3.31a.41.41,0,0,0,.16,0V25a1.12,1.12,0,0,1-.33,0c-.52,0-.61-.29-.61-.73h0a1.6,1.6,0,0,1-1.53.86c-.78,0-1.41-.39-1.41-1.23,0-1.19,1.14-1.23,2.25-1.36.43-.05.66-.1.66-.57,0-.69-.49-.86-1.1-.86s-1.11.29-1.12,1Zm2.74.62h0c-.07.12-.3.16-.44.18-.87.16-2,.15-2,1a.87.87,0,0,0,.94.83,1.34,1.34,0,0,0,1.46-1.32Z"/><path class="cls-1" d="M47.92,20.8h.86v.43h-.86v2.84c0,.33,0,.53.42.55l.44,0V25h-.46c-.68,0-.92-.23-.91-.94V21.23h-.73V20.8h.73V19.54h.51Z"/><path class="cls-1" d="M49.46,19.18H50V20h-.52Zm0,1.62H50V25h-.52Z"/><polygon class="cls-1" points="50.42 20.8 50.99 20.8 52.31 24.49 52.33 24.49 53.64 20.8 54.16 20.8 52.59 25 52.05 25 50.42 20.8"/><path class="cls-1" d="M54.91,23a1.49,1.49,0,0,0,1.38,1.65,1.28,1.28,0,0,0,1.32-1.07h.52a1.73,1.73,0,0,1-1.84,1.51c-1.33,0-1.9-1-1.9-2.23a2,2,0,0,1,1.9-2.22c1.36,0,1.89,1.18,1.85,2.36Zm2.72-.43a1.42,1.42,0,0,0-1.34-1.5,1.48,1.48,0,0,0-1.38,1.5Z"/><path class="cls-2" d="M35.1,20.94a1.75,1.75,0,0,0-1.78-1.4,2.26,2.26,0,0,0-2.19,2.55c0,1.28.65,2.56,2.19,2.56a1.91,1.91,0,0,0,1.87-1.86h.55a2.38,2.38,0,0,1-2.42,2.34,2.77,2.77,0,0,1-2.75-3,2.76,2.76,0,0,1,2.75-3,2.23,2.23,0,0,1,2.34,1.88Z"/><path class="cls-2" d="M36.42,20.8h.48v1h0a1.56,1.56,0,0,1,1.59-1v.51a1.45,1.45,0,0,0-1.56,1.51V25h-.52Z"/><path class="cls-2" d="M39.08,23a1.49,1.49,0,0,0,1.39,1.65,1.29,1.29,0,0,0,1.32-1.07h.51a1.72,1.72,0,0,1-1.83,1.51c-1.34,0-1.9-1-1.9-2.23a2,2,0,0,1,1.9-2.22c1.35,0,1.89,1.18,1.85,2.36Zm2.72-.43a1.4,1.4,0,0,0-1.33-1.5,1.49,1.49,0,0,0-1.39,1.5Z"/><path class="cls-2" d="M42.89,22.09c0-1,.75-1.41,1.71-1.41.74,0,1.55.22,1.55,1.35v2.23c0,.2.09.31.3.31a.41.41,0,0,0,.16,0V25a1.12,1.12,0,0,1-.33,0c-.52,0-.61-.29-.61-.73h0a1.6,1.6,0,0,1-1.53.86c-.78,0-1.41-.39-1.41-1.23,0-1.19,1.14-1.23,2.25-1.36.43-.05.66-.1.66-.57,0-.69-.49-.86-1.1-.86s-1.11.29-1.12,1Zm2.74.62h0c-.07.12-.3.16-.44.18-.87.16-2,.15-2,1a.87.87,0,0,0,.94.83,1.34,1.34,0,0,0,1.46-1.32Z"/><path class="cls-2" d="M47.92,20.8h.86v.43h-.86v2.84c0,.33,0,.53.42.55l.44,0V25h-.46c-.68,0-.92-.23-.91-.94V21.23h-.73V20.8h.73V19.54h.51Z"/><path class="cls-2" d="M49.46,19.18H50V20h-.52Zm0,1.62H50V25h-.52Z"/><polygon class="cls-2" points="50.42 20.8 50.99 20.8 52.31 24.49 52.33 24.49 53.64 20.8 54.16 20.8 52.59 25 52.05 25 50.42 20.8"/><path class="cls-2" d="M54.91,23a1.49,1.49,0,0,0,1.38,1.65,1.28,1.28,0,0,0,1.32-1.07h.52a1.73,1.73,0,0,1-1.84,1.51c-1.33,0-1.9-1-1.9-2.23a2,2,0,0,1,1.9-2.22c1.36,0,1.89,1.18,1.85,2.36Zm2.72-.43a1.42,1.42,0,0,0-1.34-1.5,1.48,1.48,0,0,0-1.38,1.5Z"/><path class="cls-1" d="M0,19.11H2.72c1,0,2.1.24,2.1,1.46a1.3,1.3,0,0,1-.76,1.17,1.38,1.38,0,0,1,1,1.38c0,1.39-1,1.81-2.26,1.81H0ZM1.52,21.4H2.69a.57.57,0,0,0,.62-.55.54.54,0,0,0-.62-.57H1.52Zm0,2.32H2.73c.48,0,.82-.18.82-.66s-.36-.68-.82-.68H1.52Z"/><path class="cls-1" d="M5.7,22a1.32,1.32,0,0,1,.66-1.13,2.85,2.85,0,0,1,1.35-.29c1,0,2,.22,2,1.42v1.85a2.5,2.5,0,0,0,.16,1.08H8.45a1.77,1.77,0,0,1-.08-.4A1.93,1.93,0,0,1,7,25.05c-.81,0-1.45-.41-1.45-1.28C5.53,22.39,7,22.5,8,22.31c.24,0,.37-.14.37-.4s-.38-.44-.67-.44A.63.63,0,0,0,7,22Zm1.8,2.2c.66,0,.88-.38.85-1.25a4.09,4.09,0,0,1-.86.23c-.31.07-.57.2-.57.54s.27.48.58.48"/><path class="cls-1" d="M10.53,20.7h1.34v.58h0a1.59,1.59,0,0,1,1.33-.7c1.41,0,1.52,1,1.52,1.64v2.71H13.36V22.88c0-.57.06-1.16-.7-1.16-.52,0-.75.44-.75.9v2.31H10.53Z"/><path class="cls-1" d="M15.54,22a1.32,1.32,0,0,1,.66-1.13,2.85,2.85,0,0,1,1.35-.29c1,0,2,.22,2,1.42v1.85a2.5,2.5,0,0,0,.16,1.08H18.29a1.35,1.35,0,0,1-.08-.4,1.94,1.94,0,0,1-1.4.52,1.27,1.27,0,0,1-1.44-1.28c0-1.38,1.5-1.27,2.46-1.46.24,0,.37-.14.37-.4s-.39-.44-.67-.44a.62.62,0,0,0-.69.53Zm1.79,2.2c.66,0,.88-.38.85-1.25a3.83,3.83,0,0,1-.85.23c-.31.07-.57.2-.57.54s.26.48.57.48"/><path class="cls-1" d="M20.37,20.7h1.34v.58h0a1.59,1.59,0,0,1,1.32-.7c1.41,0,1.53,1,1.53,1.64v2.71H23.19V22.88c0-.57.07-1.16-.69-1.16-.52,0-.75.44-.75.9v2.31H20.37Z"/><path class="cls-1" d="M25.38,22A1.28,1.28,0,0,1,26,20.87a2.78,2.78,0,0,1,1.34-.29c1,0,2,.22,2,1.42v1.85a2.36,2.36,0,0,0,.17,1.08h-1.4a2.57,2.57,0,0,1-.08-.4,1.93,1.93,0,0,1-1.39.52,1.26,1.26,0,0,1-1.44-1.28c0-1.38,1.5-1.27,2.46-1.46.23,0,.36-.14.36-.4s-.38-.44-.66-.44a.63.63,0,0,0-.7.53Zm1.79,2.2c.66,0,.88-.38.85-1.25a4.09,4.09,0,0,1-.86.23c-.31.07-.57.2-.57.54s.27.48.58.48"/><path class="cls-2" d="M0,19.11H2.72c1,0,2.1.24,2.1,1.46a1.3,1.3,0,0,1-.76,1.17,1.38,1.38,0,0,1,1,1.38c0,1.39-1,1.81-2.26,1.81H0ZM1.52,21.4H2.69a.57.57,0,0,0,.62-.55.54.54,0,0,0-.62-.57H1.52Zm0,2.32H2.73c.48,0,.82-.18.82-.66s-.36-.68-.82-.68H1.52Z"/><path class="cls-2" d="M5.7,22a1.32,1.32,0,0,1,.66-1.13,2.85,2.85,0,0,1,1.35-.29c1,0,2,.22,2,1.42v1.85a2.5,2.5,0,0,0,.16,1.08H8.45a1.77,1.77,0,0,1-.08-.4A1.93,1.93,0,0,1,7,25.05c-.81,0-1.45-.41-1.45-1.28C5.53,22.39,7,22.5,8,22.31c.24,0,.37-.14.37-.4s-.38-.44-.67-.44A.63.63,0,0,0,7,22Zm1.8,2.2c.66,0,.88-.38.85-1.25a4.09,4.09,0,0,1-.86.23c-.31.07-.57.2-.57.54s.27.48.58.48"/><path class="cls-2" d="M10.53,20.7h1.34v.58h0a1.59,1.59,0,0,1,1.33-.7c1.41,0,1.52,1,1.52,1.64v2.71H13.36V22.88c0-.57.06-1.16-.7-1.16-.52,0-.75.44-.75.9v2.31H10.53Z"/><path class="cls-2" d="M15.54,22a1.32,1.32,0,0,1,.66-1.13,2.85,2.85,0,0,1,1.35-.29c1,0,2,.22,2,1.42v1.85a2.5,2.5,0,0,0,.16,1.08H18.29a1.35,1.35,0,0,1-.08-.4,1.94,1.94,0,0,1-1.4.52,1.27,1.27,0,0,1-1.44-1.28c0-1.38,1.5-1.27,2.46-1.46.24,0,.37-.14.37-.4s-.39-.44-.67-.44a.62.62,0,0,0-.69.53Zm1.79,2.2c.66,0,.88-.38.85-1.25a3.83,3.83,0,0,1-.85.23c-.31.07-.57.2-.57.54s.26.48.57.48"/><path class="cls-2" d="M20.37,20.7h1.34v.58h0a1.59,1.59,0,0,1,1.32-.7c1.41,0,1.53,1,1.53,1.64v2.71H23.19V22.88c0-.57.07-1.16-.69-1.16-.52,0-.75.44-.75.9v2.31H20.37Z"/><path class="cls-2" d="M25.38,22A1.28,1.28,0,0,1,26,20.87a2.78,2.78,0,0,1,1.34-.29c1,0,2,.22,2,1.42v1.85a2.36,2.36,0,0,0,.17,1.08h-1.4a2.57,2.57,0,0,1-.08-.4,1.93,1.93,0,0,1-1.39.52,1.26,1.26,0,0,1-1.44-1.28c0-1.38,1.5-1.27,2.46-1.46.23,0,.36-.14.36-.4s-.38-.44-.66-.44a.63.63,0,0,0-.7.53Zm1.79,2.2c.66,0,.88-.38.85-1.25a4.09,4.09,0,0,1-.86.23c-.31.07-.57.2-.57.54s.27.48.58.48"/><path class="cls-1" d="M59.19,20.73a.76.76,0,1,1,.74-.76.73.73,0,0,1-.74.76m0-1.38a.63.63,0,1,0,.58.62.58.58,0,0,0-.58-.62M59,20.41h-.13v-.84h.31c.21,0,.31.07.31.24s-.09.21-.22.23l.24.37h-.16l-.22-.36H59Zm.16-.48c.1,0,.19,0,.19-.13s-.1-.11-.18-.11H59v.24Z"/><path class="cls-2" d="M59.19,20.73a.76.76,0,1,1,.74-.76.73.73,0,0,1-.74.76m0-1.38a.63.63,0,1,0,.58.62.58.58,0,0,0-.58-.62M59,20.41h-.13v-.84h.31c.21,0,.31.07.31.24s-.09.21-.22.23l.24.37h-.16l-.22-.36H59Zm.16-.48c.1,0,.19,0,.19-.13s-.1-.11-.18-.11H59v.24Z"/></svg>