<?xml version="1.0" encoding="utf-8"?>
<!-- Generator: Adobe Illustrator 25.1.0, SVG Export Plug-In . SVG Version: 6.00 Build 0)  -->
<svg version="1.1" id="Layer_1" xmlns="http://www.w3.org/2000/svg" xmlns:xlink="http://www.w3.org/1999/xlink" x="0px" y="0px"
	 viewBox="0 0 60 45" style="enable-background:new 0 0 60 45;" xml:space="preserve">
<style type="text/css">
	.st0{fill:#3F3F3F;}
</style>
<path class="st0" d="M35.1,20.94c-0.2-0.9-0.94-1.41-1.78-1.41c-1.54,0-2.19,1.29-2.19,2.56c0,1.27,0.65,2.56,2.19,2.56
	c1.08,0,1.76-0.83,1.87-1.87h0.55c-0.15,1.43-1.06,2.34-2.42,2.34c-1.83,0-2.75-1.44-2.75-3.03c0-1.59,0.91-3.03,2.75-3.03
	c1.1,0,2.19,0.66,2.34,1.88H35.1z"/>
<path class="st0" d="M36.42,20.8h0.47v0.99h0.02c0.26-0.68,0.83-1.08,1.59-1.04v0.51c-0.93-0.05-1.56,0.64-1.56,1.51V25h-0.51V20.8z
	"/>
<path class="st0" d="M39.08,23.04c0.01,0.75,0.4,1.65,1.39,1.65c0.75,0,1.16-0.44,1.32-1.08h0.51c-0.22,0.95-0.77,1.51-1.83,1.51
	c-1.34,0-1.9-1.03-1.9-2.22c0-1.11,0.56-2.22,1.9-2.22c1.35,0,1.89,1.18,1.85,2.36H39.08z M41.8,22.61c-0.02-0.77-0.51-1.5-1.34-1.5
	c-0.84,0-1.3,0.73-1.39,1.5H41.8z"/>
<path class="st0" d="M42.89,22.09c0.05-0.99,0.74-1.41,1.7-1.41c0.74,0,1.55,0.23,1.55,1.35v2.23c0,0.2,0.1,0.31,0.3,0.31
	c0.06,0,0.12-0.02,0.16-0.03v0.43C46.5,25,46.42,25,46.28,25c-0.52,0-0.6-0.29-0.6-0.73h-0.02c-0.36,0.55-0.73,0.86-1.53,0.86
	c-0.77,0-1.41-0.38-1.41-1.23c0-1.18,1.15-1.22,2.26-1.35c0.42-0.05,0.66-0.11,0.66-0.57c0-0.69-0.5-0.86-1.1-0.86
	c-0.64,0-1.11,0.29-1.12,0.98H42.89z M45.63,22.71h-0.02c-0.07,0.12-0.29,0.16-0.43,0.19c-0.87,0.15-1.96,0.15-1.96,0.97
	c0,0.51,0.46,0.83,0.94,0.83c0.78,0,1.48-0.5,1.47-1.32V22.71z"/>
<path class="st0" d="M47.92,20.8h0.86v0.43h-0.86v2.84c0,0.33,0.05,0.53,0.42,0.55c0.15,0,0.29-0.01,0.44-0.02v0.44
	c-0.15,0-0.3,0.02-0.46,0.02c-0.68,0-0.92-0.23-0.91-0.95v-2.88h-0.73V20.8h0.73v-1.26h0.51V20.8z"/>
<path class="st0" d="M49.46,19.18h0.51v0.82h-0.51V19.18z M49.46,20.8h0.51V25h-0.51V20.8z"/>
<polygon class="st0" points="50.42,20.8 51,20.8 52.32,24.49 52.33,24.49 53.64,20.8 54.17,20.8 52.59,25 52.05,25 "/>
<path class="st0" d="M54.91,23.04c0.01,0.75,0.4,1.65,1.39,1.65c0.75,0,1.16-0.44,1.32-1.08h0.51c-0.22,0.95-0.77,1.51-1.83,1.51
	c-1.34,0-1.9-1.03-1.9-2.22c0-1.11,0.56-2.22,1.9-2.22c1.35,0,1.89,1.18,1.85,2.36H54.91z M57.63,22.61
	c-0.02-0.77-0.51-1.5-1.34-1.5c-0.84,0-1.3,0.73-1.39,1.5H57.63z"/>
<path class="st0" d="M35.1,20.94c-0.2-0.9-0.94-1.41-1.78-1.41c-1.54,0-2.19,1.29-2.19,2.56c0,1.27,0.65,2.56,2.19,2.56
	c1.08,0,1.76-0.83,1.87-1.87h0.55c-0.15,1.43-1.06,2.34-2.42,2.34c-1.83,0-2.75-1.44-2.75-3.03c0-1.59,0.91-3.03,2.75-3.03
	c1.1,0,2.19,0.66,2.34,1.88H35.1z"/>
<path class="st0" d="M36.42,20.8h0.47v0.99h0.02c0.26-0.68,0.83-1.08,1.59-1.04v0.51c-0.93-0.05-1.56,0.64-1.56,1.51V25h-0.51V20.8z
	"/>
<path class="st0" d="M39.08,23.04c0.01,0.75,0.4,1.65,1.39,1.65c0.75,0,1.16-0.44,1.32-1.08h0.51c-0.22,0.95-0.77,1.51-1.83,1.51
	c-1.34,0-1.9-1.03-1.9-2.22c0-1.11,0.56-2.22,1.9-2.22c1.35,0,1.89,1.18,1.85,2.36H39.08z M41.8,22.61c-0.02-0.77-0.51-1.5-1.34-1.5
	c-0.84,0-1.3,0.73-1.39,1.5H41.8z"/>
<path class="st0" d="M42.89,22.09c0.05-0.99,0.74-1.41,1.7-1.41c0.74,0,1.55,0.23,1.55,1.35v2.23c0,0.2,0.1,0.31,0.3,0.31
	c0.06,0,0.12-0.02,0.16-0.03v0.43C46.5,25,46.42,25,46.28,25c-0.52,0-0.6-0.29-0.6-0.73h-0.02c-0.36,0.55-0.73,0.86-1.53,0.86
	c-0.77,0-1.41-0.38-1.41-1.23c0-1.18,1.15-1.22,2.26-1.35c0.42-0.05,0.66-0.11,0.66-0.57c0-0.69-0.5-0.86-1.1-0.86
	c-0.64,0-1.11,0.29-1.12,0.98H42.89z M45.63,22.71h-0.02c-0.07,0.12-0.29,0.16-0.43,0.19c-0.87,0.15-1.96,0.15-1.96,0.97
	c0,0.51,0.46,0.83,0.94,0.83c0.78,0,1.48-0.5,1.47-1.32V22.71z"/>
<path class="st0" d="M47.92,20.8h0.86v0.43h-0.86v2.84c0,0.33,0.05,0.53,0.42,0.55c0.15,0,0.29-0.01,0.44-0.02v0.44
	c-0.15,0-0.3,0.02-0.46,0.02c-0.68,0-0.92-0.23-0.91-0.95v-2.88h-0.73V20.8h0.73v-1.26h0.51V20.8z"/>
<path class="st0" d="M49.46,19.18h0.51v0.82h-0.51V19.18z M49.46,20.8h0.51V25h-0.51V20.8z"/>
<polygon class="st0" points="50.42,20.8 51,20.8 52.32,24.49 52.33,24.49 53.64,20.8 54.17,20.8 52.59,25 52.05,25 "/>
<path class="st0" d="M54.91,23.04c0.01,0.75,0.4,1.65,1.39,1.65c0.75,0,1.16-0.44,1.32-1.08h0.51c-0.22,0.95-0.77,1.51-1.83,1.51
	c-1.34,0-1.9-1.03-1.9-2.22c0-1.11,0.56-2.22,1.9-2.22c1.35,0,1.89,1.18,1.85,2.36H54.91z M57.63,22.61
	c-0.02-0.77-0.51-1.5-1.34-1.5c-0.84,0-1.3,0.73-1.39,1.5H57.63z"/>
<path class="st0" d="M0,19.11h2.72c1-0.02,2.1,0.24,2.1,1.46c0,0.52-0.31,0.95-0.77,1.17c0.62,0.18,1,0.72,1,1.38
	c0,1.39-1.02,1.81-2.27,1.81H0V19.11z M1.52,21.4h1.17c0.26,0,0.62-0.14,0.62-0.55c0-0.42-0.3-0.56-0.62-0.56H1.52V21.4z
	 M1.52,23.72h1.21c0.48,0,0.81-0.17,0.81-0.65c0-0.51-0.36-0.68-0.81-0.68H1.52V23.72z"/>
<path class="st0" d="M5.7,22c0.02-0.55,0.29-0.91,0.66-1.13c0.37-0.21,0.86-0.29,1.34-0.29c1,0,1.97,0.22,1.97,1.42v1.85
	c0,0.36,0,0.75,0.16,1.08H8.45c-0.05-0.13-0.07-0.26-0.08-0.4c-0.36,0.37-0.89,0.52-1.39,0.52c-0.81,0-1.44-0.41-1.44-1.28
	c0-1.38,1.5-1.27,2.46-1.47c0.24-0.05,0.37-0.13,0.37-0.39c0-0.32-0.38-0.44-0.67-0.44C7.31,21.47,7.07,21.65,7,22H5.7z M7.5,24.2
	c0.66,0,0.88-0.37,0.85-1.25c-0.2,0.12-0.55,0.15-0.86,0.23c-0.31,0.07-0.57,0.2-0.57,0.54C6.92,24.06,7.19,24.2,7.5,24.2"/>
<path class="st0" d="M10.53,20.7h1.34v0.58h0.02c0.25-0.43,0.82-0.7,1.33-0.7c1.41,0,1.52,1.03,1.52,1.64v2.71h-1.39v-2.05
	c0-0.58,0.07-1.17-0.69-1.17c-0.52,0-0.75,0.44-0.75,0.9v2.31h-1.39V20.7z"/>
<path class="st0" d="M15.54,22c0.02-0.55,0.29-0.91,0.66-1.13c0.37-0.21,0.86-0.29,1.34-0.29c1,0,1.97,0.22,1.97,1.42v1.85
	c0,0.36,0,0.75,0.16,1.08h-1.39c-0.05-0.13-0.07-0.26-0.08-0.4c-0.36,0.37-0.89,0.52-1.39,0.52c-0.81,0-1.44-0.41-1.44-1.28
	c0-1.38,1.5-1.27,2.46-1.47c0.24-0.05,0.37-0.13,0.37-0.39c0-0.32-0.38-0.44-0.67-0.44c-0.38,0-0.63,0.17-0.69,0.53H15.54z
	 M17.33,24.2c0.66,0,0.88-0.37,0.85-1.25c-0.2,0.12-0.55,0.15-0.86,0.23c-0.31,0.07-0.57,0.2-0.57,0.54
	C16.76,24.06,17.02,24.2,17.33,24.2"/>
<path class="st0" d="M20.37,20.7h1.34v0.58h0.02c0.25-0.43,0.82-0.7,1.33-0.7c1.41,0,1.52,1.03,1.52,1.64v2.71h-1.39v-2.05
	c0-0.58,0.07-1.17-0.69-1.17c-0.52,0-0.75,0.44-0.75,0.9v2.31h-1.39V20.7z"/>
<path class="st0" d="M25.38,22c0.02-0.55,0.29-0.91,0.66-1.13c0.37-0.21,0.86-0.29,1.34-0.29c1,0,1.97,0.22,1.97,1.42v1.85
	c0,0.36,0,0.75,0.16,1.08h-1.39c-0.05-0.13-0.07-0.26-0.08-0.4c-0.36,0.37-0.89,0.52-1.39,0.52c-0.81,0-1.44-0.41-1.44-1.28
	c0-1.38,1.5-1.27,2.46-1.47c0.24-0.05,0.37-0.13,0.37-0.39c0-0.32-0.38-0.44-0.67-0.44c-0.38,0-0.63,0.17-0.69,0.53H25.38z
	 M27.17,24.2c0.66,0,0.88-0.37,0.85-1.25c-0.2,0.12-0.55,0.15-0.86,0.23c-0.31,0.07-0.57,0.2-0.57,0.54
	C26.59,24.06,26.86,24.2,27.17,24.2"/>
<path class="st0" d="M0,19.11h2.72c1-0.02,2.1,0.24,2.1,1.46c0,0.52-0.31,0.95-0.77,1.17c0.62,0.18,1,0.72,1,1.38
	c0,1.39-1.02,1.81-2.27,1.81H0V19.11z M1.52,21.4h1.17c0.26,0,0.62-0.14,0.62-0.55c0-0.42-0.3-0.56-0.62-0.56H1.52V21.4z
	 M1.52,23.72h1.21c0.48,0,0.81-0.17,0.81-0.65c0-0.51-0.36-0.68-0.81-0.68H1.52V23.72z"/>
<path class="st0" d="M5.7,22c0.02-0.55,0.29-0.91,0.66-1.13c0.37-0.21,0.86-0.29,1.34-0.29c1,0,1.97,0.22,1.97,1.42v1.85
	c0,0.36,0,0.75,0.16,1.08H8.45c-0.05-0.13-0.07-0.26-0.08-0.4c-0.36,0.37-0.89,0.52-1.39,0.52c-0.81,0-1.44-0.41-1.44-1.28
	c0-1.38,1.5-1.27,2.46-1.47c0.24-0.05,0.37-0.13,0.37-0.39c0-0.32-0.38-0.44-0.67-0.44C7.31,21.47,7.07,21.65,7,22H5.7z M7.5,24.2
	c0.66,0,0.88-0.37,0.85-1.25c-0.2,0.12-0.55,0.15-0.86,0.23c-0.31,0.07-0.57,0.2-0.57,0.54C6.92,24.06,7.19,24.2,7.5,24.2"/>
<path class="st0" d="M10.53,20.7h1.34v0.58h0.02c0.25-0.43,0.82-0.7,1.33-0.7c1.41,0,1.52,1.03,1.52,1.64v2.71h-1.39v-2.05
	c0-0.58,0.07-1.17-0.69-1.17c-0.52,0-0.75,0.44-0.75,0.9v2.31h-1.39V20.7z"/>
<path class="st0" d="M15.54,22c0.02-0.55,0.29-0.91,0.66-1.13c0.37-0.21,0.86-0.29,1.34-0.29c1,0,1.97,0.22,1.97,1.42v1.85
	c0,0.36,0,0.75,0.16,1.08h-1.39c-0.05-0.13-0.07-0.26-0.08-0.4c-0.36,0.37-0.89,0.52-1.39,0.52c-0.81,0-1.44-0.41-1.44-1.28
	c0-1.38,1.5-1.27,2.46-1.47c0.24-0.05,0.37-0.13,0.37-0.39c0-0.32-0.38-0.44-0.67-0.44c-0.38,0-0.63,0.17-0.69,0.53H15.54z
	 M17.33,24.2c0.66,0,0.88-0.37,0.85-1.25c-0.2,0.12-0.55,0.15-0.86,0.23c-0.31,0.07-0.57,0.2-0.57,0.54
	C16.76,24.06,17.02,24.2,17.33,24.2"/>
<path class="st0" d="M20.37,20.7h1.34v0.58h0.02c0.25-0.43,0.82-0.7,1.33-0.7c1.41,0,1.52,1.03,1.52,1.64v2.71h-1.39v-2.05
	c0-0.58,0.07-1.17-0.69-1.17c-0.52,0-0.75,0.44-0.75,0.9v2.31h-1.39V20.7z"/>
<path class="st0" d="M25.38,22c0.02-0.55,0.29-0.91,0.66-1.13c0.37-0.21,0.86-0.29,1.34-0.29c1,0,1.97,0.22,1.97,1.42v1.85
	c0,0.36,0,0.75,0.16,1.08h-1.39c-0.05-0.13-0.07-0.26-0.08-0.4c-0.36,0.37-0.89,0.52-1.39,0.52c-0.81,0-1.44-0.41-1.44-1.28
	c0-1.38,1.5-1.27,2.46-1.47c0.24-0.05,0.37-0.13,0.37-0.39c0-0.32-0.38-0.44-0.67-0.44c-0.38,0-0.63,0.17-0.69,0.53H25.38z
	 M27.17,24.2c0.66,0,0.88-0.37,0.85-1.25c-0.2,0.12-0.55,0.15-0.86,0.23c-0.31,0.07-0.57,0.2-0.57,0.54
	C26.59,24.06,26.86,24.2,27.17,24.2"/>
<path class="st0" d="M59.19,20.73c-0.43,0-0.74-0.33-0.74-0.76c0-0.45,0.34-0.76,0.74-0.76c0.4,0,0.74,0.3,0.74,0.76
	C59.93,20.43,59.59,20.73,59.19,20.73 M59.19,19.35c-0.33,0-0.58,0.26-0.58,0.62c0,0.34,0.22,0.62,0.58,0.62
	c0.32,0,0.58-0.25,0.58-0.62C59.77,19.6,59.52,19.35,59.19,19.35 M59.04,20.41h-0.14v-0.84h0.32c0.2,0,0.31,0.07,0.31,0.24
	c0,0.15-0.09,0.21-0.22,0.23l0.23,0.37h-0.16l-0.22-0.36h-0.13V20.41z M59.2,19.93c0.1,0,0.19-0.01,0.19-0.13
	c0-0.1-0.1-0.11-0.18-0.11h-0.17v0.24H59.2z"/>
<path class="st0" d="M59.19,20.73c-0.43,0-0.74-0.33-0.74-0.76c0-0.45,0.34-0.76,0.74-0.76c0.4,0,0.74,0.3,0.74,0.76
	C59.93,20.43,59.59,20.73,59.19,20.73 M59.19,19.35c-0.33,0-0.58,0.26-0.58,0.62c0,0.34,0.22,0.62,0.58,0.62
	c0.32,0,0.58-0.25,0.58-0.62C59.77,19.6,59.52,19.35,59.19,19.35 M59.04,20.41h-0.14v-0.84h0.32c0.2,0,0.31,0.07,0.31,0.24
	c0,0.15-0.09,0.21-0.22,0.23l0.23,0.37h-0.16l-0.22-0.36h-0.13V20.41z M59.2,19.93c0.1,0,0.19-0.01,0.19-0.13
	c0-0.1-0.1-0.11-0.18-0.11h-0.17v0.24H59.2z"/>
</svg>
