<?xml version="1.0" encoding="utf-8"?>
<!-- Generator: Adobe Illustrator 25.1.0, SVG Export Plug-In . SVG Version: 6.00 Build 0)  -->
<svg version="1.1" id="Layer_1" xmlns="http://www.w3.org/2000/svg" xmlns:xlink="http://www.w3.org/1999/xlink" x="0px" y="0px"
	 viewBox="0 0 45 45" style="enable-background:new 0 0 45 45;" xml:space="preserve">
<style type="text/css">
	.st0{clip-path:url(#SVGID_2_);}
</style>
<g>
	<g>
		<defs>
			<rect id="SVGID_1_" x="0.1" y="8.9" width="44.9" height="27.3"/>
		</defs>
		<clipPath id="SVGID_2_">
			<use xlink:href="#SVGID_1_"  style="overflow:visible;"/>
		</clipPath>
		<g class="st0">
			<path d="M41.2,12.5H28.1V8.9h13.1V12.5z M44.4,30.7c-0.8,2.4-3.8,5.5-9.5,5.5s-10.4-3.1-10.4-10.3c0-7.1,4.3-10.8,10.2-10.8
				c5.8,0,9.3,3.2,10.1,8C45,24.4,45,25.7,45,27H30c0,1,0.2,2,0.8,2.8c0.5,0.8,1.3,1.5,2.2,1.9c0.9,0.4,2,0.5,3,0.3s1.9-0.6,2.6-1.3
				H44.4L44.4,30.7z M30.1,23.4h9.3c0-0.6-0.1-1.1-0.4-1.7c-0.2-0.5-0.6-1-1-1.4s-1-0.7-1.5-0.8c-0.6-0.2-1.1-0.2-1.7-0.2
				c-0.6,0-1.2,0-1.7,0.2c-0.6,0.2-1.1,0.5-1.5,0.8c-0.4,0.4-0.8,0.8-1,1.4C30.2,22.3,30.1,22.8,30.1,23.4L30.1,23.4z M12.1,36.1
				h-12V8.9h13c10.2,0.1,10.4,9.9,5.1,12.5C24.6,23.7,24.8,36.1,12.1,36.1z M5.7,19.8h6.7c4.7,0,5.4-5.5-0.6-5.5H5.7V19.8z M12,25.2
				H5.7v5.5h6.2C17.6,30.7,17.3,25.2,12,25.2z"/>
		</g>
	</g>
</g>
</svg>
