<svg id="Layer_1" data-name="Layer 1" xmlns="http://www.w3.org/2000/svg" viewBox="0 0 60 45"><defs><style>.cls-1{fill:#2b3130;}</style></defs><path class="cls-1" d="M52.5,45H7.5V0h45Zm-44-1h43V1h-43Z"/><polygon class="cls-1" points="41.99 4.22 41.99 21.15 39.11 21.15 39.11 8.58 31.7 21.11 28.7 21.11 20.89 8.41 20.89 21.15 18.01 21.15 18.01 4.22 21.31 4.22 30.17 18.63 38.69 4.22 41.99 4.22"/><path class="cls-1" d="M37.76,28.42V25.79H22.24v4.62H35.75a5.45,5.45,0,0,1,4.07,2.29,4.91,4.91,0,0,1-.06,5.72,5.17,5.17,0,0,1-1.49,1.38,5.59,5.59,0,0,1-3,.85H24.73a5.62,5.62,0,0,1-3-.85,5.44,5.44,0,0,1-1.49-1.38,5,5,0,0,1-.94-2.84v-.34h2.95v2.65H37.76V33.22h-13a5.57,5.57,0,0,1-3.38-1.11l-.06,0a5,5,0,0,1-1.08-1.13,4.85,4.85,0,0,1-.91-2.84,4.91,4.91,0,0,1,.89-2.82,5.39,5.39,0,0,1,1.54-1.47A5.71,5.71,0,0,1,24.22,23H35.75a5.7,5.7,0,0,1,2.52.83,5.15,5.15,0,0,1,1.54,1.47,4.85,4.85,0,0,1,.9,2.82v.33Z"/></svg>