<?xml version="1.0" encoding="utf-8"?>
<!-- Generator: Adobe Illustrator 25.1.0, SVG Export Plug-In . SVG Version: 6.00 Build 0)  -->
<svg version="1.1" id="Layer_1" xmlns="http://www.w3.org/2000/svg" xmlns:xlink="http://www.w3.org/1999/xlink" x="0px" y="0px"
	 viewBox="0 0 45 45" style="enable-background:new 0 0 45 45;" xml:space="preserve">
<style type="text/css">
	.st0{clip-path:url(#SVGID_2_);}
</style>
<g>
	<g>
		<defs>
			<rect id="SVGID_1_" width="45" height="45"/>
		</defs>
		<clipPath id="SVGID_2_">
			<use xlink:href="#SVGID_1_"  style="overflow:visible;"/>
		</clipPath>
		<g class="st0">
			<path d="M45,9c0-1.2-0.2-2.4-0.7-3.4c-0.4-1.1-1.1-2.1-1.9-2.9c-0.8-0.8-1.8-1.5-2.9-1.9S37.2,0,36,0H9C7.8,0,6.6,0.2,5.5,0.7
				C4.4,1.1,3.4,1.8,2.6,2.6S1.1,4.4,0.7,5.5C0.2,6.6,0,7.8,0,9v27c0,1.2,0.2,2.4,0.7,3.4c0.4,1.1,1.1,2.1,1.9,2.9
				c0.8,0.8,1.8,1.5,2.9,1.9C6.6,44.8,7.8,45,9,45h27c1.2,0,2.4-0.2,3.5-0.6c1.1-0.4,2.1-1.1,2.9-1.9c0.8-0.8,1.5-1.8,1.9-2.9
				c0.4-1.1,0.7-2.3,0.6-3.5L45,9L45,9z M22.6,11.3c-1.2,0-2.4,0.2-3.5,0.6c-1.1,0.4-2.2,1-3.2,1.6H4.5v-2.2c0-0.9,0.2-1.8,0.5-2.6
				s0.8-1.6,1.5-2.2C7.1,5.9,7.9,5.4,8.7,5c0.8-0.3,1.7-0.5,2.6-0.5h22.5c0.9,0,1.8,0.1,2.6,0.5c0.8,0.3,1.6,0.8,2.2,1.5
				c0.6,0.6,1.2,1.4,1.5,2.2s0.5,1.7,0.5,2.6v2.2H29.2c-1-0.7-2.1-1.2-3.2-1.6C24.9,11.5,23.8,11.2,22.6,11.3L22.6,11.3z M33.7,40.6
				H11.3c-0.9,0-1.8-0.1-2.6-0.5c-0.8-0.3-1.6-0.9-2.2-1.5C5.9,38,5.4,37.2,5,36.4c-0.3-0.8-0.5-1.7-0.5-2.6v-18h9
				c-0.7,1-1.2,2.1-1.6,3.2c-0.4,1.1-0.6,2.4-0.6,3.6c0,1.5,0.3,3,0.9,4.4c0.6,1.3,1.4,2.5,2.4,3.6c1,1,2.2,1.9,3.6,2.4
				c1.4,0.6,2.9,0.9,4.4,0.9s2.9-0.3,4.3-0.9c1.4-0.6,2.6-1.4,3.6-2.5c1-1,1.8-2.2,2.4-3.6s0.9-2.9,0.9-4.4c0-1.2-0.2-2.4-0.6-3.6
				c-0.4-1.1-0.9-2.2-1.5-3.2h9v18c0,0.9-0.2,1.8-0.5,2.6s-0.9,1.6-1.5,2.2c-0.6,0.6-1.4,1.2-2.2,1.5C35.5,40.4,34.6,40.6,33.7,40.6
				L33.7,40.6z M22.6,15.8c0.9,0,1.8,0.2,2.6,0.5c0.8,0.3,1.6,0.8,2.2,1.4s1.1,1.4,1.5,2.2c0.3,0.8,0.5,1.7,0.5,2.6
				s-0.2,1.8-0.5,2.6c-0.3,0.8-0.8,1.6-1.5,2.2c-0.6,0.6-1.4,1.1-2.2,1.4c-0.8,0.3-1.7,0.5-2.6,0.5s-1.8-0.1-2.6-0.5
				c-0.8-0.3-1.6-0.8-2.2-1.4c-1.3-1.3-2-3-2-4.8c0-1.8,0.7-3.5,2-4.8c0.6-0.6,1.4-1.1,2.2-1.5C20.8,15.9,21.7,15.8,22.6,15.8
				L22.6,15.8z M31.6,11.3H36V6.8h-4.5v4.5H31.6z"/>
		</g>
	</g>
</g>
</svg>
