<?xml version="1.0" encoding="utf-8"?>
<!-- Generator: Adobe Illustrator 25.1.0, SVG Export Plug-In . SVG Version: 6.00 Build 0)  -->
<svg version="1.1" id="Layer_1" xmlns="http://www.w3.org/2000/svg" xmlns:xlink="http://www.w3.org/1999/xlink" x="0px" y="0px"
	 viewBox="0 0 60 45" style="enable-background:new 0 0 60 45;" xml:space="preserve">
<style type="text/css">
	.st0{fill:#3F3F3F;}
</style>
<g>
	<polygon class="st0" points="11.91,17.05 7.53,17.05 4.11,21.89 4.01,21.89 4.01,14.74 0.06,14.74 0.06,28.44 4.01,28.44 
		4.01,23.83 4.11,23.83 7.66,28.44 12.43,28.44 7.79,22.58 	"/>
	<path class="st0" d="M17.19,16.79c-3.65,0-6.19,2.53-6.19,5.96c0,3.36,2.47,6.02,6.71,6.02c2.96,0,4.34-1.32,4.34-1.32l-1.25-2.47
		c0,0-1.05,0.76-2.93,0.76c-1.58,0-2.76-0.69-3.06-2.27h8.16c0,0,0.03-0.4,0.03-0.82C23.01,19.16,20.81,16.79,17.19,16.79z
		 M14.85,21.53c0.3-1.28,1.15-1.88,2.3-1.88c1.22,0,2.01,0.82,2.14,1.88H14.85z"/>
	<path class="st0" d="M43.92,25.45c-1.74,0-2.96-1.05-2.96-2.7c0-1.65,1.22-2.7,2.96-2.7c1.38,0,2.27,0.59,2.27,0.59l1.12-2.9
		c0,0-1.22-0.95-3.75-0.95c-3.98,0-6.58,2.57-6.58,5.96c0,3.36,2.6,5.96,6.58,5.96c2.53,0,3.69-0.95,3.69-0.95l-1.05-2.9
		C46.19,24.86,45.3,25.45,43.92,25.45z"/>
	<path class="st0" d="M53.52,16.79c-3.55,0-6.45,2.37-6.45,6.02c0,3.59,2.9,5.89,6.45,5.89S60,26.4,60,22.81
		C60,19.16,57.07,16.79,53.52,16.79z M53.52,25.58c-1.55,0-2.6-1.12-2.6-2.83c0-1.68,1.05-2.83,2.6-2.83c1.58,0,2.63,1.15,2.63,2.83
		C56.15,24.46,55.1,25.58,53.52,25.58z"/>
	<polygon class="st0" points="27.04,28.47 27.82,28.47 27.82,20.69 31.36,20.69 31.36,19.97 27.04,19.97 	"/>
	<polygon class="st0" points="25.46,28.47 26.25,28.47 26.25,19.25 31.36,19.25 31.36,18.53 25.46,18.53 	"/>
	<polygon class="st0" points="23.88,17.09 23.88,28.47 24.67,28.47 24.67,17.81 31.36,17.81 31.36,17.09 23.88,17.09 	"/>
	<polygon class="st0" points="33.73,28.47 34.51,28.47 34.51,19.25 33.73,18.53 	"/>
	<polygon class="st0" points="35.3,28.47 36.09,28.47 36.09,20.69 35.3,19.97 	"/>
	<polygon class="st0" points="32.15,28.47 32.94,28.47 32.94,17.81 32.15,17.09 	"/>
</g>
</svg>
