<?xml version="1.0" encoding="utf-8"?>
<!-- Generator: Adobe Illustrator 25.1.0, SVG Export Plug-In . SVG Version: 6.00 Build 0)  -->
<svg version="1.1" id="Layer_1" xmlns="http://www.w3.org/2000/svg" xmlns:xlink="http://www.w3.org/1999/xlink" x="0px" y="0px"
	 viewBox="0 0 45 45" style="enable-background:new 0 0 45 45;" xml:space="preserve">
<style type="text/css">
	.st0{fill:#FFFFFF;}
</style>
<path class="st0" d="M41.8,0H3.2C1.5,0,0,1.5,0,3.2v38.5C0,43.5,1.5,45,3.2,45h38.5c1.8,0,3.2-1.5,3.2-3.2V3.2C45,1.5,43.5,0,41.8,0
	L41.8,0z M16,34h-5.5V17.5H16V34z M13.2,15.3L13.2,15.3c-1.9,0-3.1-1.3-3.1-2.8c0-1.6,1.2-2.8,3.1-2.8c1.9,0,3,1.2,3.1,2.8
	C16.3,14,15.1,15.3,13.2,15.3z M35.7,34h-5.5v-8.8c0-2.2-0.8-3.7-2.8-3.7c-1.5,0-2.4,1-2.8,2c-0.1,0.4-0.2,0.8-0.2,1.3V34H19
	c0,0,0.1-14.9,0-16.5h5.5v2.3c0.7-1.1,2-2.7,4.9-2.7c3.6,0,6.3,2.4,6.3,7.4V34z"/>
</svg>
