<svg id="Layer_1" data-name="Layer 1" xmlns="http://www.w3.org/2000/svg" viewBox="0 0 45 45"><defs><style>.cls-1{fill:#fff;}</style></defs><path class="cls-1" d="M45,45H0V0H45ZM1,44H44V1H1Z"/><polygon class="cls-1" points="34.49 4.22 34.49 21.15 31.61 21.15 31.61 8.58 24.2 21.11 21.2 21.11 13.39 8.41 13.39 21.15 10.51 21.15 10.51 4.22 13.81 4.22 22.67 18.63 31.19 4.22 34.49 4.22"/><path class="cls-1" d="M30.26,28.42V25.79H14.74v4.62H28.25a5.45,5.45,0,0,1,4.07,2.29,4.91,4.91,0,0,1-.06,5.72,5.17,5.17,0,0,1-1.49,1.38,5.59,5.59,0,0,1-3,.85H17.23a5.62,5.62,0,0,1-3-.85,5.44,5.44,0,0,1-1.49-1.38,5,5,0,0,1-.94-2.84v-.34h3v2.65H30.26V33.22h-13a5.57,5.57,0,0,1-3.38-1.11l-.06,0a5,5,0,0,1-1.08-1.13,4.85,4.85,0,0,1-.91-2.84,4.91,4.91,0,0,1,.89-2.82,5.39,5.39,0,0,1,1.54-1.47A5.71,5.71,0,0,1,16.72,23H28.25a5.7,5.7,0,0,1,2.52.83,5.15,5.15,0,0,1,1.54,1.47,4.85,4.85,0,0,1,.9,2.82v.33Z"/></svg>