<svg id="Layer_1" data-name="Layer 1" xmlns="http://www.w3.org/2000/svg" viewBox="0 0 60 45"><defs><style>.cls-1{fill:#2b3130;}.cls-2{fill:#010101;}</style></defs><path class="cls-1" d="M6.52,32.92,7.6,30.38H8L9,32.92H8.72l-.31-.74H7.15l-.31.74Zm.74-1h1l-.52-1.24Z"/><path class="cls-1" d="M11.42,33a1.72,1.72,0,0,1-.61-.1.84.84,0,0,1-.35-.29.79.79,0,0,1-.13-.4h.3a.37.37,0,0,0,.12.29.56.56,0,0,0,.29.17,1.29,1.29,0,0,0,.4.06.92.92,0,0,0,.51-.12.36.36,0,0,0,.19-.33.28.28,0,0,0-.09-.22.74.74,0,0,0-.25-.14,3.37,3.37,0,0,0-.34-.09l-.37-.1a1.15,1.15,0,0,1-.34-.13.62.62,0,0,1-.25-.19.46.46,0,0,1-.1-.31.63.63,0,0,1,.24-.51,1.13,1.13,0,0,1,.72-.19,1.34,1.34,0,0,1,.56.1.77.77,0,0,1,.32.26.6.6,0,0,1,.12.36h-.29a.47.47,0,0,0-.19-.32.85.85,0,0,0-.52-.14,1.13,1.13,0,0,0-.35.05.42.42,0,0,0-.21.11.44.44,0,0,0-.12.27.24.24,0,0,0,.1.21.65.65,0,0,0,.25.13,2.37,2.37,0,0,0,.34.09l.37.1a1.81,1.81,0,0,1,.35.13.82.82,0,0,1,.25.2.52.52,0,0,1,.09.31.63.63,0,0,1-.27.55A1.3,1.3,0,0,1,11.42,33Z"/><path class="cls-1" d="M14,32.92V30.38h.28v2.54Z"/><path class="cls-1" d="M15.79,32.92l1.08-2.54h.36l1.08,2.54H18l-.31-.74H16.42l-.31.74Zm.74-1h1l-.52-1.24Z"/><path class="cls-1" d="M19.78,32.92V30.38h.33l1.57,2.13V30.38H22v2.54h-.33l-1.57-2.15v2.15Z"/><path class="cls-1" d="M27.47,33a1.21,1.21,0,0,1-.66-.18,1.13,1.13,0,0,1-.42-.47,1.38,1.38,0,0,1-.15-.65,1.45,1.45,0,0,1,.15-.66,1.13,1.13,0,0,1,1.08-.64,1.24,1.24,0,0,1,.52.1,1.21,1.21,0,0,1,.39.28,1,1,0,0,1,.24.41h-.3a.94.94,0,0,0-.3-.38,1,1,0,0,0-.53-.13,1,1,0,0,0-.52.13.85.85,0,0,0-.33.37,1.21,1.21,0,0,0-.11.52,1.19,1.19,0,0,0,.11.51.85.85,0,0,0,.33.37,1,1,0,0,0,.52.14,1,1,0,0,0,.53-.14.91.91,0,0,0,.3-.37h.3a1.14,1.14,0,0,1-.24.41,1.21,1.21,0,0,1-.39.28A1.42,1.42,0,0,1,27.47,33Z"/><path class="cls-1" d="M31.25,33a1.16,1.16,0,0,1-.56-.14,1,1,0,0,1-.38-.4,1.2,1.2,0,0,1-.14-.59V30.38h.29v1.45a1,1,0,0,0,.11.48.77.77,0,0,0,.3.27.85.85,0,0,0,.38.09.89.89,0,0,0,.39-.09.75.75,0,0,0,.29-.27.85.85,0,0,0,.12-.48V30.38h.28v1.44a1.22,1.22,0,0,1-.13.59,1.07,1.07,0,0,1-.39.4A1.13,1.13,0,0,1,31.25,33Z"/><path class="cls-1" d="M34.08,32.92V30.38h.28v2.54Z"/><path class="cls-1" d="M37.05,33a1.68,1.68,0,0,1-.61-.1.73.73,0,0,1-.35-.29.8.8,0,0,1-.14-.4h.3a.45.45,0,0,0,.12.29.59.59,0,0,0,.3.17,1.25,1.25,0,0,0,.4.06,1,1,0,0,0,.51-.12.37.37,0,0,0,.19-.33.29.29,0,0,0-.1-.22.66.66,0,0,0-.25-.14,2.79,2.79,0,0,0-.34-.09l-.37-.1a1.26,1.26,0,0,1-.34-.13.69.69,0,0,1-.25-.19.52.52,0,0,1-.09-.31.63.63,0,0,1,.24-.51,1.09,1.09,0,0,1,.71-.19,1.31,1.31,0,0,1,.56.1.87.87,0,0,1,.33.26.77.77,0,0,1,.12.36h-.3a.43.43,0,0,0-.19-.32.83.83,0,0,0-.52-.14,1.13,1.13,0,0,0-.35.05.35.35,0,0,0-.2.11.33.33,0,0,0-.1.14.3.3,0,0,0,0,.13.26.26,0,0,0,.09.21.73.73,0,0,0,.25.13,2.79,2.79,0,0,0,.34.09l.38.1a1.71,1.71,0,0,1,.34.13.71.71,0,0,1,.25.2.52.52,0,0,1,.09.31.63.63,0,0,1-.27.55A1.27,1.27,0,0,1,37.05,33Z"/><path class="cls-1" d="M39.65,32.92V30.38h.29v2.54Z"/><path class="cls-1" d="M41.71,32.92V30.38h.34l1.56,2.13V30.38h.29v2.54h-.33L42,30.77v2.15Z"/><path class="cls-1" d="M45.68,32.92V30.38h1.87v.27H46v.85h1.42v.28H46v.86h1.59v.28Z"/><path class="cls-1" d="M56.47,16.94c-.86.17-1.71.37-2.56.58,0,.24,0,.47,0,.69,0,1.82.12,3.79-.55,5.31-.76,1.79-3.09,2.2-4.88,1.69C46.17,24.6,46,21.94,46,19.89c0-1.87-.11-3.8.82-5.27.94-1.31,2.75-1.46,4.32-1.2A2.92,2.92,0,0,1,53.29,15c.59-.31,1.19-.61,1.79-.9-1.64-1.94-4.2-2.19-6.63-1.9-5,.47-6,6.51-4.64,10.41s5.77,4.73,9.2,3.52C56.54,24.58,57.21,20.33,56.47,16.94ZM39.74,20.81c3.51-1.37,3.06-7.28-.61-8.25-.85-.35-4.41-.13-5.38-.18H30.88a40,40,0,0,1,0,14h2.87a30.14,30.14,0,0,1-.55-4.87,31.23,31.23,0,0,1,4.64-.32,36.23,36.23,0,0,1,1.83,5.19h3.08A26.54,26.54,0,0,0,39.74,20.81Zm-.61-1.57c-1.25.77-4,.71-6,.3a45.91,45.91,0,0,1,.3-5.51c1.55,0,4-.16,5.19.28A3,3,0,0,1,39.13,19.24ZM24.39,12.38H21.52a32.46,32.46,0,0,1,.58,5.74,10.48,10.48,0,0,1-7.34,0,32.77,32.77,0,0,1,.58-5.74H12.47a40,40,0,0,1,0,14h2.87a33.24,33.24,0,0,1-.59-5.8,10.48,10.48,0,0,1,7.36,0,33.47,33.47,0,0,1-.59,5.8h2.87a36.06,36.06,0,0,1-.6-7A37.27,37.27,0,0,1,24.39,12.38Zm4.82,0H26.34a40,40,0,0,1,0,14h2.87A40,40,0,0,1,29.21,12.38ZM7,18.75a12.64,12.64,0,0,1-3.32-1c-1.8-.95-1-6.12,6.34-2.31l.81-2.49C7.72,12.29,2.52,10.65,1.07,15c-.72,2.17.62,4.07,3,4.87,1.17.41,2,.39,3.87,1,2.68.9,1.9,3.89-1,3.93a7.08,7.08,0,0,1-5.38-2.37L0,25.12c3.59,1.24,11.1,3.33,11.59-2.26C11.77,20.44,9.13,19.21,7,18.75Z"/><path class="cls-1" d="M60,16.36c-1.18.15-2.36.35-3.53.58-.86.17-1.71.37-2.56.58a47.25,47.25,0,0,0-5.37,1.73l-.56-1A46.87,46.87,0,0,1,53.29,15c.59-.31,1.19-.61,1.79-.9,1.27-.61,2.56-1.17,3.88-1.69l.38,1.47c-1,.32-1.88.65-2.81,1l-.72.29c-.72.28-1.42.58-2.12.9-1.12.5-2.21,1-3.28,1.65q1.65-.72,3.36-1.29c.76-.25,1.52-.49,2.3-.71l.67-.19c.95-.26,1.89-.49,2.85-.71Z"/><path class="cls-2" d="M56.47,16.94c-.86.17-1.71.37-2.56.58,0,.24,0,.47,0,.69,0,1.82.12,3.79-.55,5.31-.76,1.79-3.09,2.2-4.88,1.69C46.17,24.6,46,21.94,46,19.89c0-1.87-.11-3.8.82-5.27.94-1.31,2.75-1.46,4.32-1.2A2.92,2.92,0,0,1,53.29,15c.59-.31,1.19-.61,1.79-.9-1.64-1.94-4.2-2.19-6.63-1.9-5,.47-6,6.51-4.64,10.41s5.77,4.73,9.2,3.52C56.54,24.58,57.21,20.33,56.47,16.94ZM39.74,20.81c3.51-1.37,3.06-7.28-.61-8.25-.85-.35-4.41-.13-5.38-.18H30.88a40,40,0,0,1,0,14h2.87a30.14,30.14,0,0,1-.55-4.87,31.23,31.23,0,0,1,4.64-.32,36.23,36.23,0,0,1,1.83,5.19h3.08A26.54,26.54,0,0,0,39.74,20.81Zm-.61-1.57c-1.25.77-4,.71-6,.3a45.91,45.91,0,0,1,.3-5.51c1.55,0,4-.16,5.19.28A3,3,0,0,1,39.13,19.24ZM24.39,12.38H21.52a32.46,32.46,0,0,1,.58,5.74,10.48,10.48,0,0,1-7.34,0,32.77,32.77,0,0,1,.58-5.74H12.47a40,40,0,0,1,0,14h2.87a33.24,33.24,0,0,1-.59-5.8,10.48,10.48,0,0,1,7.36,0,33.47,33.47,0,0,1-.59,5.8h2.87a36.06,36.06,0,0,1-.6-7A37.27,37.27,0,0,1,24.39,12.38Zm4.82,0H26.34a40,40,0,0,1,0,14h2.87A40,40,0,0,1,29.21,12.38ZM7,18.75a12.64,12.64,0,0,1-3.32-1c-1.8-.95-1-6.12,6.34-2.31l.81-2.49C7.72,12.29,2.52,10.65,1.07,15c-.72,2.17.62,4.07,3,4.87,1.17.41,2,.39,3.87,1,2.68.9,1.9,3.89-1,3.93a7.08,7.08,0,0,1-5.38-2.37L0,25.12c3.59,1.24,11.1,3.33,11.59-2.26C11.77,20.44,9.13,19.21,7,18.75Z"/><path class="cls-2" d="M60,16.36c-1.18.15-2.36.35-3.53.58-.86.17-1.71.37-2.56.58a47.25,47.25,0,0,0-5.37,1.73l-.56-1A46.87,46.87,0,0,1,53.29,15c.59-.31,1.19-.61,1.79-.9,1.27-.61,2.56-1.17,3.88-1.69l.38,1.47c-1,.32-1.88.65-2.81,1l-.72.29c-.72.28-1.42.58-2.12.9-1.12.5-2.21,1-3.28,1.65q1.65-.72,3.36-1.29c.76-.25,1.52-.49,2.3-.71l.67-.19c.95-.26,1.89-.49,2.85-.71Z"/></svg>