<svg id="Layer_1" data-name="Layer 1" xmlns="http://www.w3.org/2000/svg" viewBox="0 0 45 45"><defs><style>.cls-1{fill:#fff;}</style></defs><path class="cls-1" d="M38.82,1.3a1.36,1.36,0,0,0-.46,1.07V32.9a1.48,1.48,0,0,0,1.48,1.48v.41H34.67v-.41A1.31,1.31,0,0,0,36.05,33V26.24a3.18,3.18,0,0,0-.46-1.69,9.39,9.39,0,0,0-7.94-4.41H24.48a10.38,10.38,0,0,1-2.82-.4,1.88,1.88,0,0,0-.51-.11A15,15,0,0,0,6.76,31.87a2.11,2.11,0,0,0,2.1,2.51v.41H3.69v-.41a2.64,2.64,0,0,0,2.61-2.2,15.47,15.47,0,0,1,13-12.8.33.33,0,0,0,.15-.62,9.7,9.7,0,0,1-5-8.6A9.8,9.8,0,0,1,24.27.48H39.84V.89a1.43,1.43,0,0,0-1,.41M34.67.89H24.27A8.22,8.22,0,0,0,22,1.14C19.05,2.37,17,6,17,10.31c0,4,1.9,7.53,4.56,9a7.13,7.13,0,0,0,2.76.47h3.38a9.65,9.65,0,0,1,7,3,1.09,1.09,0,0,0,.62.25.85.85,0,0,0,.81-.87V2.37A1.42,1.42,0,0,0,34.67.89"/><path class="cls-1" d="M8.78,34.44v.42A1.14,1.14,0,0,0,7.69,36.1c.52,4,2.86,7.18,5.87,7.9a6.76,6.76,0,0,0,1.51.11A8,8,0,0,0,16.21,44c3.38-.78,6-4.73,6-9.4V10.33A1.1,1.1,0,0,0,21.1,9.24H13.77a1.1,1.1,0,0,0-1.09,1.09v.42h-.42V8.88h17.1v1.87h-.42v-.42a1.09,1.09,0,0,0-1.09-1.09H25.93a1.09,1.09,0,0,0-1,1.09l-.05,24.22a10,10,0,0,1-8.52,9.87,6.7,6.7,0,0,1-1.41.1,10.16,10.16,0,0,1-9.82-8.36,1.51,1.51,0,0,0-1.5-1.3v-.42Z"/><path class="cls-1" d="M38.21,39.4a1.25,1.25,0,0,0-.78.27,1.88,1.88,0,0,0-.47.56,1.69,1.69,0,0,0-.46-.56,1.26,1.26,0,0,0-.79-.27,1.44,1.44,0,0,0-1.41,1.54c0,1,.76,1.59,1.91,2.57l.64.56a.17.17,0,0,0,.22,0l.65-.56c1.15-1,1.91-1.62,1.91-2.57a1.45,1.45,0,0,0-1.42-1.54"/></svg>