<svg id="Layer_1" data-name="Layer 1" xmlns="http://www.w3.org/2000/svg" viewBox="0 0 45 45"><defs><style>.cls-1{fill:#fff;}</style></defs><path class="cls-1" d="M3.59,16.28c1.87,0,3.22,1,3.22,2.39h.26C7.07,17.19,5.63,16,3.6,16S.08,17.06.08,18.64s1.24,2.68,3.35,2.68,3.29,1,3.29,2.48-1.59,2.42-3.25,2.42S.29,25.2.29,23.8H0c0,1.43,1.4,2.7,3.5,2.7C5.31,26.5,7,25.42,7,23.81,7,22.4,5.87,21,3.43,21c-1.9,0-3.05-1-3.05-2.38S1.9,16.28,3.59,16.28Z"/><path class="cls-1" d="M25.51,20.75a2.92,2.92,0,0,0-2.36,1.18V16a.15.15,0,0,0-.15-.15h-.29a.15.15,0,0,0-.15.15V26.5a.15.15,0,0,0,.15.15H23a.15.15,0,0,0,.15-.15v-1a2.92,2.92,0,0,0,2.36,1.18,2.95,2.95,0,0,0,0-5.9Zm0,5.29a2.36,2.36,0,1,1,2.35-2.36A2.36,2.36,0,0,1,25.51,26Z"/><rect class="cls-1" x="29.62" y="20.89" width="0.59" height="5.76" rx="0.15"/><path class="cls-1" d="M40.66,20.75a3,3,0,1,0,2.12,5,.16.16,0,0,0,0-.11.12.12,0,0,0,0-.1l-.22-.21a.14.14,0,0,0-.21,0,2.38,2.38,0,0,1-1.69.71,2.34,2.34,0,0,1-2.35-2.19h5.15a.15.15,0,0,0,.15-.15A3,3,0,0,0,40.66,20.75Zm0,.58A2.37,2.37,0,0,1,43,23.26H38.34A2.36,2.36,0,0,1,40.66,21.33Z"/><path class="cls-1" d="M44.57,25.8a.42.42,0,0,0-.42.43.41.41,0,0,0,.42.42.42.42,0,0,0,.43-.42A.43.43,0,0,0,44.57,25.8Z"/><path class="cls-1" d="M6.55,14.07H9.09V26.5h.29V24.9l1.38-1.37,3,3h.39L11,23.33,13.26,21h-.39L9.38,24.47V18.22h0V14.07H12s0,0,0,0v-.26s0,0,0,0H6.55s0,0,0,0v.26S6.53,14.07,6.55,14.07Z"/><path class="cls-1" d="M31.93,16V26.5a.15.15,0,0,0,.15.15h.29a.15.15,0,0,0,.15-.15V25l1.22-1.23,2.87,2.87a.15.15,0,0,0,.1,0h.39a.16.16,0,0,0,.14-.09.15.15,0,0,0,0-.17l-3.06-3.05,2.21-2.2a.15.15,0,0,0,0-.16.14.14,0,0,0-.14-.09h-.39a.15.15,0,0,0-.11,0l-3.23,3.18V11.45h1.66a2.44,2.44,0,0,1,0,4.87.22.22,0,1,0,0,.43,2.86,2.86,0,0,0,.2-5.72H28.53a0,0,0,0,0,0,0v.35a0,0,0,0,0,0,0h3.4Z"/><path class="cls-1" d="M20.38,24.16a2.11,2.11,0,0,1-2.15,2.05A2.17,2.17,0,0,1,16.08,24V21h-.3V24a2.45,2.45,0,0,0,4.6,1.25v2.95a3.41,3.41,0,0,1-.13.95,5.26,5.26,0,0,1-.42,1.25A5.49,5.49,0,0,1,9.37,28a.14.14,0,0,0-.14-.14.14.14,0,0,0-.14.14,5.77,5.77,0,0,0,11.43,1.16,3.87,3.87,0,0,0,.15-1.13V21h-.29Z"/><path class="cls-1" d="M41.14,27.8a.23.23,0,0,0-.23.23A5.41,5.41,0,0,1,30.1,28a.23.23,0,0,0-.23-.23.23.23,0,0,0-.23.23,5.87,5.87,0,0,0,11.73,0A.23.23,0,0,0,41.14,27.8Z"/></svg>