<svg id="Layer_1" data-name="Layer 1" xmlns="http://www.w3.org/2000/svg" viewBox="0 0 60 45"><defs><style>.cls-1{fill:#2b3130;}</style></defs><path class="cls-1" d="M60,17.62a3.38,3.38,0,0,0-5.11-2.9,9.12,9.12,0,0,0-10.82.5,4.05,4.05,0,0,0-1-1.33,5.33,5.33,0,0,0-3.77-1.27h-6c-.18,0-.26.08-.26.26l0,16.42c0,.06,0,.09,0,.09s-.06,0-.08-.06L22.79,12.8a.4.4,0,0,0-.32-.18h-.31c-.18,0-.27.08-.27.26v6l-3.75-6.5a.3.3,0,0,0-.26-.15.29.29,0,0,0-.25.15l-3.07,5.31-3.12-5.39a.32.32,0,0,0-.16-.22.33.33,0,0,0-.46.12L9.9,13.81a4.75,4.75,0,0,0-3.05-1H.28a.26.26,0,0,0-.26.26V31H0a.36.36,0,0,0,0,.29.33.33,0,0,0,.13.13.33.33,0,0,0,.17,0,.32.32,0,0,0,.29-.17l5.08-8.84H6.85a4.7,4.7,0,0,0,3.45-1.31,4.75,4.75,0,0,0,1.31-3.5,4.81,4.81,0,0,0-1.2-3.39l.69-1.2,3.07,5.3L6.87,31a.26.26,0,0,0,0,.29.29.29,0,0,0,.25.15H28.65a.29.29,0,0,0,.25-.15.26.26,0,0,0,0-.29L23.06,20.92l-.38-.66V14.32c0-.05,0-.08.05-.09s.06,0,.08.07L33,30.83a.38.38,0,0,0,.31.18h6a5.33,5.33,0,0,0,3.77-1.27,4.45,4.45,0,0,0,.54-.61,9.15,9.15,0,0,0,15.08-8.88A3.37,3.37,0,0,0,60,17.62ZM.81,29.66V22.6a.11.11,0,0,1,.11-.11h4Zm4.54-7.91H.92a.1.1,0,0,1-.11-.1v-8a.11.11,0,0,1,.11-.11H6.85a3.89,3.89,0,0,1,2.66.92Zm5.47-4a4,4,0,0,1-1.09,2.93,3.87,3.87,0,0,1-2.88,1.11H6.13L10,15A4.27,4.27,0,0,1,10.82,17.71Zm4.34,13.18L11.4,24.37,14.51,19l6.91,11.91Zm7.9-8.79,5.07,8.79H22.21L14.91,18.3l3-5.16L22.44,21Zm19.5,7.08a4.39,4.39,0,0,1-3.15,1.09H34c-.07,0-.11,0-.11-.1V13.46a.1.1,0,0,1,.11-.11h5.39a4.43,4.43,0,0,1,3.15,1.09,3.48,3.48,0,0,1,.88,1.34,9.14,9.14,0,0,0-.36,12.78A3.42,3.42,0,0,1,42.56,29.18Zm1.16-3a4.83,4.83,0,0,1-.25,1.57,8.32,8.32,0,0,1,.19-11.06,5.69,5.69,0,0,1,.06.74ZM54.9,15.72a8.39,8.39,0,0,1,2.91,4.18,2.65,2.65,0,0,1-1.19.29,2.56,2.56,0,0,1-1.72-4.47Zm-5.08,15a8.36,8.36,0,0,1-5.75-2.3,5.17,5.17,0,0,0,.43-2.18V17.4A5.84,5.84,0,0,0,44.35,16a8.32,8.32,0,0,1,9.87-.79,3.34,3.34,0,0,0-1,2.37A3.38,3.38,0,0,0,58,20.7a8.1,8.1,0,0,1,.17,1.65A8.37,8.37,0,0,1,49.82,30.71Zm8.67-11.33a9.19,9.19,0,0,0-2.87-4.13,2.58,2.58,0,0,1,3.57,2.37A2.58,2.58,0,0,1,58.49,19.38Z"/></svg>