<svg id="Layer_1" data-name="Layer 1" xmlns="http://www.w3.org/2000/svg" viewBox="0 0 45 45"><defs><style>.cls-1{fill:#fff;}</style></defs><path class="cls-1" d="M33.17,14.42a2.05,2.05,0,0,0-1.26-2.51L25.08,8.67a1.31,1.31,0,0,0-.55-.13,1.24,1.24,0,0,0-.66.19.72.72,0,0,0-.37.59l0,24.08,5.88-8.53Z"/><path class="cls-1" d="M24.57,33.47l9-4.23,8.37-6.06A1.51,1.51,0,0,0,42.21,21l-4.27-5.35a.72.72,0,0,0-.55-.27h0a.7.7,0,0,0-.55.31L28.25,28.14Z"/><path class="cls-1" d="M44.6,25.54a1,1,0,0,0-.55-.17,1,1,0,0,0-.4.09l-14,6.6-5.5,2.59a.89.89,0,0,0-.5.57.86.86,0,0,0,0,.5.92.92,0,0,0,.93.74l18.64-.1a1,1,0,0,0,.94-.86L45,26.41A1,1,0,0,0,44.6,25.54Z"/><path class="cls-1" d="M11.83,14.42a2.05,2.05,0,0,1,1.26-2.51l6.83-3.24a1.31,1.31,0,0,1,.55-.13,1.24,1.24,0,0,1,.66.19.72.72,0,0,1,.37.59l0,24.08-5.88-8.53Z"/><path class="cls-1" d="M20.43,33.47l-9-4.23L3.08,23.18A1.51,1.51,0,0,1,2.79,21l4.27-5.35a.72.72,0,0,1,.55-.27h0a.7.7,0,0,1,.55.31l8.56,12.42Z"/><path class="cls-1" d="M.4,25.54A1,1,0,0,1,1,25.37a1,1,0,0,1,.4.09l14,6.6,5.5,2.59a.89.89,0,0,1,.5.57.86.86,0,0,1,0,.5.92.92,0,0,1-.93.74l-18.64-.1a1,1,0,0,1-.94-.86L0,26.41A1,1,0,0,1,.4,25.54Z"/></svg>