<svg id="Layer_1" data-name="Layer 1" xmlns="http://www.w3.org/2000/svg" xmlns:xlink="http://www.w3.org/1999/xlink" viewBox="0 0 45 45"><defs><style>.cls-1{fill:#fff;}.cls-2{clip-path:url(#clip-path);}</style><clipPath id="clip-path"><path class="cls-1" d="M4.37,15.52a4.24,4.24,0,0,1,4.19,4.31v9.63H4.3A4.28,4.28,0,0,1,.07,25.14V15.52Z"/></clipPath></defs><g id="Logo_B_Vertical" data-name="Logo B Vertical"><polygon class="cls-1" points="14.32 20.04 15.45 20.04 17.46 25.58 19.48 20.04 20.6 20.04 17.89 27.12 17.03 27.12 14.32 20.04"/><rect class="cls-1" x="21.41" y="20.04" width="1.16" height="1.15"/><path class="cls-1" d="M29.33,25.21A3.41,3.41,0,0,1,28,26.62a3.74,3.74,0,0,1-1.9.5H24.38v2.36h-1.1V20H26a3.66,3.66,0,0,1,2.61,1,3.39,3.39,0,0,1,1.09,2.55A3.47,3.47,0,0,1,29.33,25.21Zm-4.95.88H26a2.58,2.58,0,0,0,1.84-.71,2.36,2.36,0,0,0,.76-1.78,2.32,2.32,0,0,0-.74-1.76A2.61,2.61,0,0,0,26,21.16h-1.6Z"/><path class="cls-1" d="M36.31,25.21A3.41,3.41,0,0,1,35,26.62a3.74,3.74,0,0,1-1.9.5H31.36v2.36h-1.1V20H33a3.66,3.66,0,0,1,2.61,1,3.35,3.35,0,0,1,1.09,2.55A3.47,3.47,0,0,1,36.31,25.21Zm-5,.88h1.57a2.58,2.58,0,0,0,1.84-.71,2.46,2.46,0,0,0,0-3.54A2.6,2.6,0,0,0,33,21.16H31.36Z"/><path class="cls-1" d="M41.07,27.22a3.85,3.85,0,0,1-2.7-1,3.53,3.53,0,0,1,0-5.18,4,4,0,0,1,5.42,0,3.51,3.51,0,0,1,0,5.18A3.88,3.88,0,0,1,41.07,27.22Zm0-6.24a2.7,2.7,0,0,0-1.93.76,2.49,2.49,0,0,0,0,3.67,2.87,2.87,0,0,0,3.85,0,2.38,2.38,0,0,0,.82-1.83A2.35,2.35,0,0,0,43,21.74,2.74,2.74,0,0,0,41.07,21Z"/><rect class="cls-1" x="21.41" y="21.77" width="1.16" height="5.35"/><path class="cls-1" d="M4.37,15.52a4.24,4.24,0,0,1,4.19,4.31v9.63H4.3A4.28,4.28,0,0,1,.07,25.14V15.52Z"/><g class="cls-2"><path class="cls-1" d="M4.37,15.52a4.24,4.24,0,0,1,4.19,4.31v9.63H4.3A4.28,4.28,0,0,1,.07,25.14V15.52Z"/><g class="cls-2"><polygon class="cls-1" points="0.07 15.52 8.56 15.52 8.56 29.46 0.07 29.46 0.07 15.52 0.07 15.52"/></g></g><path class="cls-1" d="M8.78,20.22v3.59l2.24,0,1.6-3.61Z"/><path class="cls-1" d="M8.78,24v2.47H9.85L10.92,24Z"/><path class="cls-1" d="M8.77,26.67l0,1.91c0,.3,0,.6,0,.9l1-2.81Z"/><path class="cls-1" d="M11.18,24l-.58,1.25L10,26.48h1.54L13.89,24Z"/><path class="cls-1" d="M10,26.67c-.24.56-.48,1.12-.71,1.69-.16.37-.31.75-.46,1.12l2.61-2.81Z"/><path class="cls-1" d="M11.64,26.67c-.9.93-1.79,1.87-2.68,2.81l4.81-2.8Z"/></g></svg>