<svg id="Layer_1" data-name="Layer 1" xmlns="http://www.w3.org/2000/svg" viewBox="0 0 45 45"><defs><style>.cls-1{fill:#fff;}</style></defs><path class="cls-1" d="M3.19,27.42V19c0-.6-.19-.9-.59-.9a8.46,8.46,0,0,0-1,0,1.54,1.54,0,0,0-1,.43,8.31,8.31,0,0,0-.63.66V18c0-.15.1-.24.29-.25q.8,0,6.87,0c.32,0,.49.12.52.37v1a2.74,2.74,0,0,0-1-.92,5,5,0,0,0-1.56-.15.59.59,0,0,0-.59.33,3,3,0,0,0-.07.78v7.77c0,.3-.12.46-.38.49Z"/><path class="cls-1" d="M14.42,27.42H13.09c-.29.06-.54-.26-.75-1-.17-.49-.29-.84-.38-1a1.34,1.34,0,0,0-.22-.4.58.58,0,0,0-.4-.12H8.26l-.62,2.2a1.2,1.2,0,0,1-.17.23.42.42,0,0,1-.29.12H6.69l3.1-9.66c0-.08.1-.13.23-.17l.17,0h.5Zm-2.75-3.09a.31.31,0,0,0,0-.15l-1.69-4.7c-.08-.18-.15-.27-.23-.27s-.13.09-.17.27l-1.18,5h3.07C11.59,24.5,11.67,24.44,11.67,24.33Z"/><path class="cls-1" d="M15.07,27.43V17.74h.83a.74.74,0,0,1,.64.42q.12.19,4.38,8.42l-.2-8.16c0-.42.05-.65.26-.68h.49l-.3,9.69h-.86c-.19,0-.37-.13-.54-.4s-1.37-2.62-3.88-7.43l-.54,7.27C15.32,27.17,15.23,27.36,15.07,27.43Z"/><path class="cls-1" d="M28.18,18.55a3.63,3.63,0,0,0-.66-.24,8.79,8.79,0,0,0-1.66-.18,10.25,10.25,0,0,1-1.11,0q-.54,0-.54.69v3.74H27c.22,0,.35,0,.39.1s-.1.27-.28.22H24.64q-.45,0-.45.69v3.47h1.52a6.47,6.47,0,0,0,2.42-.38,1.31,1.31,0,0,0,.88-1v1.3a.51.51,0,0,1-.16.42.68.68,0,0,1-.34.08H22.89v-8.7a.93.93,0,0,1,1-1c2.19,0,3.64,0,4.34,0,.51,0,.76.27.76.71v1A1.5,1.5,0,0,0,28.18,18.55Z"/><path class="cls-1" d="M31.48,17.74a.36.36,0,0,1,.36.41v9a17.12,17.12,0,0,0,3.46-.25,1.89,1.89,0,0,0,1.27-.94v1c0,.31-.15.49-.41.52H30.47V17.74Z"/><path class="cls-1" d="M45,27.42H43.67c-.29.06-.54-.26-.75-1-.17-.49-.29-.84-.38-1a1.34,1.34,0,0,0-.22-.4.58.58,0,0,0-.4-.12H38.84l-.62,2.2a1.2,1.2,0,0,1-.17.23.42.42,0,0,1-.29.12h-.49l3.1-9.66c0-.08.1-.13.23-.17l.17,0h.5Zm-2.75-3.09a.31.31,0,0,0,0-.15l-1.69-4.7c-.08-.18-.15-.27-.23-.27s-.13.09-.17.27l-1.18,5H42C42.17,24.5,42.25,24.44,42.25,24.33Z"/></svg>