<svg id="Layer_1" data-name="Layer 1" xmlns="http://www.w3.org/2000/svg" viewBox="0 0 45 45"><defs><style>.cls-1{fill:#fff;}</style></defs><path class="cls-1" d="M27.62,44A22.14,22.14,0,1,0,5.33,36.38a.39.39,0,0,0,.55,0A.5.5,0,0,0,6,36.24l.47-1.67a34.84,34.84,0,0,1,1.34-3.88C9.6,26.4,13.06,19.86,18.18,18A1.36,1.36,0,0,0,19,16.28a1.11,1.11,0,0,0-.07-.16,7.46,7.46,0,0,1-.67-2.41,3.09,3.09,0,0,1,.67-2.36,2.48,2.48,0,0,1,2-.93,3.07,3.07,0,0,1,1.75.75,4.06,4.06,0,0,1,.9,1.21,1.47,1.47,0,0,0,.48.51.83.83,0,0,0,.81,0,1.66,1.66,0,0,0,.68-1.06,2.6,2.6,0,0,1,.63-1.22,1.45,1.45,0,0,1,1.89-.19,1.46,1.46,0,0,1,.52,1.22,5.43,5.43,0,0,1-.18,1.13.41.41,0,0,0,0,.11.36.36,0,0,0,.07.1,2.34,2.34,0,0,1,.52.61,1.41,1.41,0,0,1,.12.49,2.62,2.62,0,0,1-.66,1.7l-.23.29a1.1,1.1,0,0,0,.19,1.53,1.35,1.35,0,0,0,.26.15l.34.13a22.37,22.37,0,0,1,3.26,1.69,6,6,0,0,0-3.49,1.27,5.07,5.07,0,0,0-1.26,4.94,1.57,1.57,0,0,1,0,.86,1.49,1.49,0,0,1-1.67.85c-.6-.08-.85-.64-1-1.16l-.08-.28a1.27,1.27,0,0,0-1.56-.85,1.25,1.25,0,0,0-.8.72l-.12.27c-.18.44-1,2.89,1.54,7.74a28.57,28.57,0,0,1,1.62,3.62,6.68,6.68,0,0,1-1,6.34c-.1.12-.2.24-.3.34a.23.23,0,0,0,0,.33.2.2,0,0,0,.21.06Zm1.12-3.59c0-2.45-1.2-5.18-2.51-7.7a16.81,16.81,0,0,1-1.08-2.55A4.88,4.88,0,0,0,27.58,30,3.78,3.78,0,0,0,29,29.28a4.14,4.14,0,0,0,1.36-3.34c0-.51-.21-1-.23-1.49a2,2,0,0,1,.56-1.59c.77-.71,3.43-.69,5-.46l1.24.19a.71.71,0,0,0,.81-.6.68.68,0,0,0-.07-.44l0-.06A10,10,0,0,0,35,18.28,18,18,0,0,0,31.46,16a4.38,4.38,0,0,0-.16-3.88,5,5,0,0,0-.93-3.28A3.72,3.72,0,0,0,27.58,7.5,4.18,4.18,0,0,0,24,8.9a4.72,4.72,0,0,0-2-1.08,4.78,4.78,0,0,0-3.36.41,5.35,5.35,0,0,0-2.83,3.2A7.68,7.68,0,0,0,16,16c-5.55,2.76-9.09,9.68-10.84,14a18.78,18.78,0,0,1-1.58-7.57A19,19,0,1,1,28.74,40.4Z"/></svg>