<svg id="Layer_1" data-name="Layer 1" xmlns="http://www.w3.org/2000/svg" viewBox="0 0 45 45"><defs><style>.cls-1{fill:#fff;}</style></defs><path class="cls-1" d="M17.06,43.15H15.88l-.39,0-.39,0-.39,0-.39,0-.38,0-.39,0-.38,0-.38-.05-.38,0-.38,0-.37-.06-.38-.07-.37-.07-.37-.07-.37-.08-.36-.08-.36-.08-.37-.09-.36-.09L8.37,42,8,41.88l-.35-.1-.35-.11L7,41.56l-.35-.12-.34-.12-.34-.12-.34-.13-.34-.13-.33-.14-.33-.13-.33-.15-.33-.14-.32-.15-.17-.08-.15-.07-.36-.17a3.12,3.12,0,0,1-.35-.2,2.27,2.27,0,0,1-.32-.22L2,39.24,1.68,39l-.25-.3-.22-.33h0a2,2,0,0,1-.15-.26,4.19,4.19,0,0,1-.43-1.41q0-.3,0-.6h0a3.29,3.29,0,0,1,.05-.54A3,3,0,0,1,.75,35a4.24,4.24,0,0,1,.18-.5c.07-.16.15-.32.23-.47s.19-.29.29-.42a3.17,3.17,0,0,1,.34-.39,4.14,4.14,0,0,1,.38-.35,3.72,3.72,0,0,1,.88-.54,4.14,4.14,0,0,1,.49-.19A4.94,4.94,0,0,1,4.06,32l.58-.06h.1l.59-.06c.2,0,.4,0,.59-.06l.59-.07.58-.08.58-.08.58-.1.57-.1.57-.11.56-.12.57-.12.55-.14.56-.14.54-.14.55-.16.54-.16.53-.17.53-.18.53-.18.52-.19.52-.2.51-.21c.17-.06.34-.14.51-.21l.5-.21.49-.23.5-.23.48-.24.46-.23A29.58,29.58,0,0,0,31.88,16.05a10.74,10.74,0,0,0,1.24-5.17c0-.37,0-.73,0-1.09v0l-.18-4.14c0-.1,0-.2,0-.3a3.42,3.42,0,0,1,.7-2.09A3.54,3.54,0,0,1,35,2.11a3.48,3.48,0,0,1,4.76,2.73l0,.2.38,3.56.33,2.86a.93.93,0,0,0,.25.54,14.6,14.6,0,0,1,1,1.28l.14.19,0,0,.06.08.17.26.13.2,0,0,.13.23c.12.19.24.4.35.61l.13.26h0A15.14,15.14,0,0,1,43.73,17l0,.15c0,.11.07.21.1.32l0,.14c.06.22.12.44.17.66l0,.16c0,.16.07.33.1.5s0,.19,0,.29v.06l.06.46,0,.19,0,.33v0a7.22,7.22,0,0,1,0,.82v.06a.13.13,0,0,0,0,.06v.07a1.34,1.34,0,0,1,0,.2h0v.11c0,.08,0,.15,0,.23v.05l0,.29h0a1.8,1.8,0,0,1,0,.22s0,.08,0,.13,0,.23,0,.35-.07.51-.12.77-.07.4-.11.6l0,.15a1.16,1.16,0,0,1,0,.18v0l-.06.25c0,.13-.06.26-.1.4l-.06.21v0c0,.09-.05.18-.07.27l0,.06a22.77,22.77,0,0,1-9.56,12.37A30.84,30.84,0,0,1,17.06,43.15ZM2.33,37.64a1.5,1.5,0,0,0,.15.23l.17.21.19.19.21.17a1.88,1.88,0,0,0,.23.16,1.71,1.71,0,0,0,.23.13l.34.16L4,39l.15.07.31.14.31.14.32.14.32.13.32.13.32.12.32.12.33.12L7,40.2l.33.11.33.11.34.1.34.1.34.1.34.09.35.09.34.08.35.08.35.08.35.07.36.07.35.07.36.06.36.06.36.05.37,0,.36,0,.37,0,.37,0,.37,0,.37,0,.37,0,.38,0h.37l.38,0h.76c12.13,0,22.56-6.73,25.35-16.38l0-.07a1.33,1.33,0,0,1,0-.19v0l0-.2.09-.37c0-.09,0-.16.06-.24h0a1,1,0,0,1,0-.17l0-.15c0-.17.07-.36.1-.55s.08-.48.1-.71,0-.23,0-.33,0-.08,0-.12h0c0-.06,0-.13,0-.19v0a2.28,2.28,0,0,1,0-.26v-.06a1.27,1.27,0,0,0,0-.2h0v-.1h0a1.34,1.34,0,0,0,0-.2h0v-.16q0-.33,0-.69v0l0-.3,0-.17c0-.13,0-.27-.05-.41v0c0-.1,0-.19,0-.28l-.09-.45,0-.15L42.65,18l0-.14c0-.09,0-.19-.08-.28l-.05-.14a13.75,13.75,0,0,0-.67-1.64h0l-.12-.24c-.1-.19-.21-.37-.31-.55a2.39,2.39,0,0,1-.13-.21v0l-.12-.19L41,14.33h0l-.05-.06,0,0L40.75,14a14.73,14.73,0,0,0-.94-1.15,2.24,2.24,0,0,1-.6-1.28l-.33-2.87L38.48,5a2.15,2.15,0,0,0-2.13-1.83,2.07,2.07,0,0,0-.82.16,2,2,0,0,0-.9.69,2.13,2.13,0,0,0-.44,1.3,1.21,1.21,0,0,0,0,.19v0l.18,4.14a11.72,11.72,0,0,1,0,1.19A12,12,0,0,1,33,16.69,30.87,30.87,0,0,1,20,29l-.48.25-.51.24-.5.24-.52.24-.52.22-.52.22-.53.21-.54.21-.54.2-.54.19-.55.18-.55.17-.56.17-.56.16L12,32l-.57.14-.58.14-.58.13-.58.12-.59.11-.59.11-.59.1-.6.08-.6.09-.61.07-.61.06-.61.06h-.1a3.08,3.08,0,0,0-.46,0l-.35.08-.34.13-.32.17a1.94,1.94,0,0,0-.29.21l-.26.23c-.09.09-.16.18-.24.27s-.13.2-.19.3a1.91,1.91,0,0,0-.16.32,3.42,3.42,0,0,0-.13.34c0,.11,0,.23-.07.35s0,.25,0,.38h0c0,.14,0,.27,0,.41a3.41,3.41,0,0,0,.3,1l.1.17ZM41.24,14.77Z"/></svg>