<svg id="Layer_1" data-name="Layer 1" xmlns="http://www.w3.org/2000/svg" viewBox="0 0 45 45"><defs><style>.cls-1{fill:#fff;}</style></defs><path class="cls-1" d="M5.82,19v6.78H5.26L.35,19.41s0,0,0,0,0,0,0,0v6.33H.11V19H.69l4.88,6.32s0,0,0,0a0,0,0,0,0,0,0V19Z"/><path class="cls-1" d="M15.66,25.75l-.6-1.48a.2.2,0,0,0-.17-.11H11.43a.18.18,0,0,0-.17.11l-.6,1.48h-.49L12.94,19h.12l2.77,6.78ZM14.86,24l.05,0a.06.06,0,0,0,0-.06L13.2,19.74a.05.05,0,0,0,0,0,.05.05,0,0,0-.06,0L11.4,23.92a.06.06,0,0,0,0,.06.11.11,0,0,0,.06,0Z"/><path class="cls-1" d="M33.7,25.75l-.6-1.48a.2.2,0,0,0-.17-.11H29.47a.18.18,0,0,0-.17.11l-.6,1.48h-.49L31,19h.11l2.78,6.78ZM32.89,24,33,24a.06.06,0,0,0,0-.06l-1.71-4.18a.05.05,0,0,0-.06,0,.05.05,0,0,0-.05,0l-1.69,4.18a.06.06,0,0,0,0,.06l0,0Z"/><polygon class="cls-1" points="21.79 23.97 17.61 17.15 18.54 17.15 22.26 23.22 22.2 23.26 18.5 17.22 17.73 17.22 21.85 23.93 21.79 23.97"/><path class="cls-1" d="M22.23,23.24m.09-.14L26,17.18h.27L22.06,24v3.89h-.24V24Z"/><path class="cls-1" d="M22.09,27.9h-.3v-4l.5-.86L26,17.15h.35L22.09,24Zm-.23-.07H22V24h0l4.15-6.73H26l-3.64,5.9-.49.84Z"/><path class="cls-1" d="M38.72,19l2.9,4.41,0,0,0,0L44.59,19h.49v6.78h-.46V19.3s0,0,0,0a0,0,0,0,0,0,0L41.45,24l-3-4.59s0,0,0,0a0,0,0,0,0,0,0v6.34h-.15V19Z"/></svg>