<svg id="Layer_1" data-name="Layer 1" xmlns="http://www.w3.org/2000/svg" viewBox="0 0 45 45"><defs><style>.cls-1{fill:#fff;}</style></defs><path class="cls-1" d="M22.5,44.52a22,22,0,1,1,22-22A22,22,0,0,1,22.5,44.52ZM22.5.77A21.73,21.73,0,1,0,44.23,22.5,21.76,21.76,0,0,0,22.5.77Zm0,36.39A14.66,14.66,0,1,1,37.16,22.5,14.67,14.67,0,0,1,22.5,37.16Zm0-29A14.37,14.37,0,1,0,36.87,22.5,14.38,14.38,0,0,0,22.5,8.13Z"/><path class="cls-1" d="M21.44,23.43v-6.7h2c2.7,0,3.93,1.73,3.93,3.35s-1.23,3.35-3.93,3.35h-2Zm2.86-7.29H19.7v0H17.94v.1s0,.2.13.23l.21,0c.46.1,1.23.26,1.23,1.05v9.58c0,.78-.77.94-1.23,1l-.21.05c-.13,0-.13.2-.13.23v.1H23v-.1a.22.22,0,0,0-.13-.23l-.21-.05c-.46-.1-1.23-.26-1.23-1V24H24.3c3.55-.1,5.17-2.09,5.17-3.93s-1.62-3.84-5.17-3.94"/><path class="cls-1" d="M21.34,23.32v-6.7h2c2.7,0,3.93,1.74,3.93,3.35S26,23.32,23.34,23.32h-2ZM24.2,16H19.6v0H17.83v.1s0,.2.14.23l.21.05c.46.1,1.22.26,1.22,1V27c0,.79-.76.95-1.22,1l-.21.05c-.13,0-.14.2-.14.23v.1h5.08v-.1c0-.09,0-.21-.13-.23l-.21-.05c-.46-.1-1.23-.26-1.23-1V23.92H24.2c3.55-.1,5.17-2.09,5.17-3.94S27.75,16.14,24.2,16"/><path class="cls-1" d="M11.51,9.58a.22.22,0,1,1,.33-.28.22.22,0,0,1,0,.32.21.21,0,0,1-.31,0"/><path class="cls-1" d="M12.82,7.92l.08.1a.5.5,0,0,0,.61.07c.29-.18.31-.52.09-.87A.57.57,0,0,0,12.81,7a.49.49,0,0,0-.2.59.43.43,0,0,0,.05.12Zm-.52-.23L12,7.21l.25-.15.17.25h0a.66.66,0,0,1,.35-.62A.8.8,0,0,1,13.87,7a.84.84,0,0,1-.18,1.23.61.61,0,0,1-.61.05h0l.51.81-.27.17Z"/><path class="cls-1" d="M15,6.16c-.08-.19-.16-.36-.23-.5L15,5.55l.15.31h0a.51.51,0,0,1,.29-.55l.09,0,.12.27-.11,0a.46.46,0,0,0-.23.55s0,.09,0,.14l.38.86-.29.13Z"/><path class="cls-1" d="M17.26,5.63c.1.37.39.6.69.51a.61.61,0,0,0,.34-.8c-.08-.29-.33-.62-.69-.51s-.43.48-.34.8m1.34-.39A.87.87,0,0,1,18,6.38.83.83,0,0,1,17,5.73a.86.86,0,0,1,.59-1.14.84.84,0,0,1,1.06.65"/><path class="cls-1" d="M20,4.13l.45,1a3.15,3.15,0,0,1,.19.43h0c0-.15.06-.3.1-.47l.23-1,.34,0-.5,1.83-.3,0-.86-1.68Z"/><path class="cls-1" d="M23.54,4.85c-.35,0-.75,0-.76.37a.28.28,0,0,0,.29.32.44.44,0,0,0,.44-.28.36.36,0,0,0,0-.1Zm0,.9V5.53h0a.62.62,0,0,1-.54.24.5.5,0,0,1-.52-.53c0-.42.4-.64,1.08-.61v0a.36.36,0,0,0-.38-.43.87.87,0,0,0-.46.11l-.07-.21a1.08,1.08,0,0,1,.59-.13c.54,0,.65.39.64.74l0,.66a2.94,2.94,0,0,0,0,.43Z"/><path class="cls-1" d="M25.11,5.73a.22.22,0,0,1,.25-.19.22.22,0,0,1,.18.27.23.23,0,0,1-.26.19.22.22,0,0,1-.17-.27"/><rect class="cls-1" x="30.74" y="6.99" width="2.59" height="0.32" transform="translate(9.05 30.58) rotate(-58.14)"/><path class="cls-1" d="M33.91,9c-.27-.23-.62-.43-.83-.17a.28.28,0,0,0,0,.43.46.46,0,0,0,.52,0l.07-.07Zm-.53.72.12-.19h0a.68.68,0,0,1-.59-.14.5.5,0,0,1-.09-.73c.27-.33.71-.28,1.23.16l0,0A.37.37,0,0,0,34,8.22.91.91,0,0,0,33.57,8l.08-.21a1.13,1.13,0,0,1,.55.25.62.62,0,0,1,.06,1l-.41.51a2.3,2.3,0,0,0-.25.35Z"/><path class="cls-1" d="M37.12,11.08l-.6.87q-.14.21-.27.39h0l.45-.14,1-.32.2.27-1.82.49-.19-.24,1-1.59Z"/><path class="cls-1" d="M38.51,14.63a.46.46,0,0,0,.26-.63.55.55,0,0,0-.7-.2Zm-.64-.72a.57.57,0,0,0-.26.82,1.22,1.22,0,0,0,.31.39l-.18.15a1.36,1.36,0,0,1-.37-.46.83.83,0,0,1,.38-1.19.87.87,0,0,1,1.23.29.76.76,0,0,1-.4,1l-.13.06Z"/><path class="cls-1" d="M39.33,16.13c.2-.07.37-.13.52-.2l.09.27-.32.13h0a.53.53,0,0,1,.53.33.29.29,0,0,1,0,.09l-.28.1a.61.61,0,0,0,0-.11.45.45,0,0,0-.53-.26l-.15,0-.88.32-.11-.3Z"/><path class="cls-1" d="M39.86,19.17c-.06-.35-.2-.72-.54-.65a.29.29,0,0,0-.24.36.43.43,0,0,0,.38.35h.1ZM39,19.4l.21-.07h0a.67.67,0,0,1-.36-.48.5.5,0,0,1,.38-.63c.42-.08.72.24.86.91h0a.36.36,0,0,0,.32-.48.85.85,0,0,0-.22-.42l.19-.11a1,1,0,0,1,.27.53.62.62,0,0,1-.56.8l-.65.14a3.44,3.44,0,0,0-.41.11Z"/><path class="cls-1" d="M40,23h-.13a.49.49,0,0,0-.4.46c0,.34.25.55.65.57s.67-.15.68-.49a.56.56,0,0,0-.5-.53Zm.49-.29.57,0V23h-.31a.68.68,0,0,1,.31.64.79.79,0,0,1-.93.7c-.63,0-.93-.43-.9-.85a.59.59,0,0,1,.3-.52h0l-1-.05,0-.32Z"/><path class="cls-1" d="M41.16,26.28A.2.2,0,0,1,41,26a.2.2,0,0,1,.23-.15.18.18,0,0,1,.16.23.19.19,0,0,1-.23.16M39,25.51l1.73.32-.06.32L39,25.82Z"/><path class="cls-1" d="M38.87,27l.74,1.07.19.31h0l.29-.91.25.08-.42,1.28-.19-.06L39,27.73a3,3,0,0,1-.19-.3h0l-.32,1-.24-.08L38.69,27Z"/><path class="cls-1" d="M38.06,29.3l.58,1.18.14.32h0l.42-.86.23.11-.59,1.21-.18-.09L38.1,30c-.06-.11-.1-.21-.15-.32h0l-.45.93-.23-.11.63-1.29Z"/><path class="cls-1" d="M36.89,32.77c.2-.28.38-.64.09-.84a.29.29,0,0,0-.42.08.45.45,0,0,0,0,.52.46.46,0,0,0,.07.07Zm-.77-.47.2.11h0a.65.65,0,0,1,.09-.59.5.5,0,0,1,.72-.16c.36.24.33.69-.06,1.24l0,0a.38.38,0,0,0,.57-.1.9.9,0,0,0,.15-.46l.21.06a1.08,1.08,0,0,1-.19.57.63.63,0,0,1-1,.14l-.54-.37a2.11,2.11,0,0,0-.37-.22Z"/><path class="cls-1" d="M34.84,35.7l.33.36-.22.18-.2-.21h0a.63.63,0,0,1-.22.63.65.65,0,0,1-1-.16l-.68-.8.24-.21.66.77c.19.22.42.33.65.13a.45.45,0,0,0,.11-.53.31.31,0,0,0-.08-.13l-.69-.8.24-.21Z"/><path class="cls-1" d="M31.45,37.75c.31-.18.61-.44.43-.73a.29.29,0,0,0-.42-.11.44.44,0,0,0-.2.48.24.24,0,0,0,0,.09ZM30.94,37l.14.18h0a.65.65,0,0,1,.32-.5.5.5,0,0,1,.73.15c.22.36,0,.76-.56,1.11v0a.37.37,0,0,0,.56.14.89.89,0,0,0,.32-.35l.17.14a1.07,1.07,0,0,1-.41.44.63.63,0,0,1-.95-.27l-.34-.56a1.87,1.87,0,0,0-.25-.34Z"/><path class="cls-1" d="M29.51,38.54l-.06-.12a.5.5,0,0,0-.59-.16c-.32.12-.39.46-.24.83s.42.54.73.41a.5.5,0,0,0,.3-.55.31.31,0,0,0,0-.13Zm.47.31c.09.21.16.38.23.53l-.27.11-.12-.27h0a.68.68,0,0,1-.45.55.8.8,0,0,1-1-.55A.84.84,0,0,1,28.71,38a.62.62,0,0,1,.61.06h0L29,37.21l.29-.12Z"/><path class="cls-1" d="M26.81,39.63a.55.55,0,1,0-1,.24c.06.29.29.63.66.54s.45-.45.38-.78M25.45,40a.87.87,0,0,1,.66-1.11.84.84,0,0,1,1,.71.85.85,0,0,1-.65,1.1.83.83,0,0,1-1-.7"/><rect class="cls-1" x="23.81" y="39.22" width="0.32" height="2.59" transform="translate(-3.19 2.07) rotate(-4.63)"/><path class="cls-1" d="M21.16,40.28a.45.45,0,0,0,.41.55.54.54,0,0,0,.52-.5Zm.95-.18a.57.57,0,0,0-.58-.64,1.08,1.08,0,0,0-.49.07l0-.24a1.58,1.58,0,0,1,.59-.08.82.82,0,0,1,.82.93.86.86,0,0,1-.87.91.74.74,0,0,1-.69-.86.49.49,0,0,1,0-.15Z"/><path class="cls-1" d="M18.88,41.2l.09-.5-.45-.08.05-.24.45.08.18-.93c0-.22,0-.35-.18-.38a.69.69,0,0,0-.18,0l0-.24a1,1,0,0,1,.29,0,.46.46,0,0,1,.31.2.72.72,0,0,1,0,.48l-.18.94.26,0,0,.24-.27-.05-.08.42Z"/><path class="cls-1" d="M16.53,39.14c.33.12.73.19.84-.13a.29.29,0,0,0-.19-.39.45.45,0,0,0-.5.14.41.41,0,0,0-.05.09Zm.24-.86,0,.21h0a.64.64,0,0,1,.59-.08.51.51,0,0,1,.35.66c-.14.4-.57.5-1.21.28l0,0a.37.37,0,0,0,.25.52.88.88,0,0,0,.48,0v.22a1,1,0,0,1-.6,0,.62.62,0,0,1-.4-.9l.21-.63a2.52,2.52,0,0,0,.11-.41Z"/><path class="cls-1" d="M14.69,38.81c-.08.16-.15.29-.21.43l-.25-.14.12-.26h0a.63.63,0,0,1-.67,0,.64.64,0,0,1-.2-1L14,37l.28.15-.47.89c-.14.26-.16.52.11.66a.45.45,0,0,0,.53-.09.27.27,0,0,0,.09-.12l.5-.94.29.15Z"/><path class="cls-1" d="M11.57,36.39c.27.22.63.41.83.14a.28.28,0,0,0-.05-.43.44.44,0,0,0-.52,0,.27.27,0,0,0-.08.07Zm.5-.74-.11.19h0a.64.64,0,0,1,.59.11.51.51,0,0,1,.12.73c-.26.34-.7.3-1.24-.12l0,0a.36.36,0,0,0,.07.57.86.86,0,0,0,.44.17l-.07.21a1.07,1.07,0,0,1-.55-.22.63.63,0,0,1-.1-1l.4-.53a2.09,2.09,0,0,0,.23-.35Z"/></svg>