<svg id="Layer_1" data-name="Layer 1" xmlns="http://www.w3.org/2000/svg" viewBox="0 0 45 45"><defs><style>.cls-1{fill:#fff;}</style></defs><path class="cls-1" d="M5.16,11.84v4.38H4.1V13.48l-.95,2.74H2.22l-1-2.75v2.75H.2V11.84H1.51L2.7,14.89l1.16-3.05Z"/><path class="cls-1" d="M10.34,11.81v4.41H9.27V11.81Z"/><path class="cls-1" d="M17.5,15.41H15.85l-.27.81H14.45l1.62-4.38H17.3l1.61,4.38H17.78Zm-.27-.81L16.68,13l-.55,1.62Z"/><path class="cls-1" d="M3.26,23.86H1.61l-.27.81H.21l1.62-4.38H3.06l1.61,4.38H3.54ZM3,23.05l-.55-1.62-.55,1.62Z"/><path class="cls-1" d="M11.82,24.67H10.75L9,22v2.71H7.9V20.26H9L10.75,23V20.26h1.07Z"/><path class="cls-1" d="M18.37,23.6a1.94,1.94,0,0,1-.79.79,2.66,2.66,0,0,1-1.23.28H14.68V20.26h1.67a2.65,2.65,0,0,1,1.23.27,1.86,1.86,0,0,1,.79.78,2.48,2.48,0,0,1,0,2.29Zm-1.14-.22a1.44,1.44,0,0,0,0-1.86,1.36,1.36,0,0,0-1-.33h-.51v2.52h.51A1.36,1.36,0,0,0,17.23,23.38Z"/><path class="cls-1" d="M1.37,28.74l1.08,3.32,1.08-3.32H4.67L3.13,33.15H1.76L.23,28.74Z"/><path class="cls-1" d="M9.57,29.59v.92h1.49v.81H9.57v1h1.67v.85H8.5V28.74h2.74v.85Z"/><path class="cls-1" d="M17.24,33.15l-1-1.66H16v1.66H15V28.74H16.8a1.94,1.94,0,0,1,.88.18,1.25,1.25,0,0,1,.54.5,1.43,1.43,0,0,1,.19.72,1.28,1.28,0,0,1-.27.82,1.42,1.42,0,0,1-.77.46l1.05,1.73ZM16,30.76h.66a.69.69,0,0,0,.47-.14.57.57,0,0,0,.15-.42.56.56,0,0,0-.15-.41.66.66,0,0,0-.47-.15H16Z"/><path class="cls-1" d="M25.17,32.55a1.25,1.25,0,0,1-.52.47,1.8,1.8,0,0,1-.84.17,2,2,0,0,1-1.23-.36,1.3,1.3,0,0,1-.52-1H23.2a.59.59,0,0,0,.17.4.6.6,0,0,0,.39.14.49.49,0,0,0,.33-.11.41.41,0,0,0,.12-.3.38.38,0,0,0-.11-.28,1,1,0,0,0-.27-.19l-.45-.17a4.88,4.88,0,0,1-.69-.28,1.22,1.22,0,0,1-.45-.4,1.11,1.11,0,0,1-.19-.69,1.14,1.14,0,0,1,.2-.68,1.28,1.28,0,0,1,.55-.44,2,2,0,0,1,.81-.15,1.83,1.83,0,0,1,1.17.35,1.33,1.33,0,0,1,.49,1H24.11a.55.55,0,0,0-.16-.34.44.44,0,0,0-.34-.13.45.45,0,0,0-.31.1.37.37,0,0,0-.11.29.39.39,0,0,0,.1.27.78.78,0,0,0,.26.17l.45.18a4.88,4.88,0,0,1,.69.28,1.29,1.29,0,0,1,.46.41,1.16,1.16,0,0,1,.2.7A1.19,1.19,0,0,1,25.17,32.55Z"/><path class="cls-1" d="M31.89,32.55a1.28,1.28,0,0,1-.53.47,1.8,1.8,0,0,1-.84.17,2,2,0,0,1-1.22-.36,1.3,1.3,0,0,1-.52-1h1.13a.65.65,0,0,0,.18.4.56.56,0,0,0,.39.14.46.46,0,0,0,.32-.11.41.41,0,0,0,.12-.3.34.34,0,0,0-.11-.28.77.77,0,0,0-.27-.19l-.45-.17a4.7,4.7,0,0,1-.68-.28,1.25,1.25,0,0,1-.46-.4,1.18,1.18,0,0,1-.19-.69,1.21,1.21,0,0,1,.2-.68,1.38,1.38,0,0,1,.56-.44,2,2,0,0,1,.8-.15,1.83,1.83,0,0,1,1.17.35A1.29,1.29,0,0,1,32,30H30.83a.6.6,0,0,0-.16-.34.46.46,0,0,0-.35-.13.44.44,0,0,0-.3.1.34.34,0,0,0-.11.29.39.39,0,0,0,.1.27.69.69,0,0,0,.26.17,4.12,4.12,0,0,0,.45.18,4.88,4.88,0,0,1,.69.28,1.38,1.38,0,0,1,.46.41,1.16,1.16,0,0,1,.19.7A1.28,1.28,0,0,1,31.89,32.55Z"/><path class="cls-1" d="M36.48,29.59v.92H38v.81H36.48v1h1.68v.85H35.41V28.74h2.75v.85Z"/><path class="cls-1" d="M43.08,32.33H44.8v.82H42V28.74h1.07Z"/><rect class="cls-1" x="22.05" y="22.71" width="16.11" height="1.96"/><rect class="cls-1" x="42.01" y="22.71" width="2.78" height="1.96"/></svg>