<svg id="Layer_1" data-name="Layer 1" xmlns="http://www.w3.org/2000/svg" viewBox="0 0 45 45"><defs><style>.cls-1{fill:#fff;}</style></defs><path class="cls-1" d="M22.5,45A22.47,22.47,0,1,1,45,22.5,22.5,22.5,0,0,1,22.5,45ZM22.5.88A21.62,21.62,0,1,0,44.12,22.5,21.65,21.65,0,0,0,22.5.88Z"/><path class="cls-1" d="M30.3,6.3l.11.08c.28.14.51,0,.7-.35s.12-.63-.18-.78a.5.5,0,0,0-.16,0l-1,2a.23.23,0,0,0,0,.09s0,0,0,.08l.28.23L30,7.69l-.54-.31c-.13-.06-.31-.14-.55-.23l0-.16a1,1,0,0,0,.24,0,.18.18,0,0,0,.13-.09l.91-1.85c0-.06,0-.1,0-.13l-.16-.16,0,0,.1-.13s0,0,.12.08l.76.34c.65.33.87.72.64,1.19a.83.83,0,0,1-.52.41,1,1,0,0,1-.67,0,.47.47,0,0,1-.11-.1l-.09-.12Z"/><path class="cls-1" d="M33.26,6.81,32.09,8.54a.13.13,0,0,0,0,.07.11.11,0,0,0,0,.07.69.69,0,0,0,.13.17l0,0L32.12,9a4.26,4.26,0,0,0-.43-.34,5.5,5.5,0,0,0-.48-.28l.07-.15c.16.07.27.09.31.06s0,0,.05-.06l1.17-1.72a.17.17,0,0,0,0-.07s0,0,0-.07a1.29,1.29,0,0,0-.13-.17l0,0,.12-.12a4.26,4.26,0,0,0,.43.34,5.5,5.5,0,0,0,.48.28l-.07.15c-.17-.07-.27-.1-.32-.06S33.28,6.78,33.26,6.81Z"/><path class="cls-1" d="M34.7,7.45l.64.55a1.57,1.57,0,0,1,.47.65.59.59,0,0,1-.15.61.67.67,0,0,1-.47.22.74.74,0,0,1-.52-.16l0,0a.46.46,0,0,1,.07.31,1.58,1.58,0,0,1,0,.38,1.78,1.78,0,0,0-.09.71.6.6,0,0,0,.18.32l-.13.09-.55-.5c-.05,0-.06-.16,0-.34s.07-.33.11-.49l.09-.36a1,1,0,0,0,0-.21.22.22,0,0,0-.08-.15l-.06,0-.56.61a.28.28,0,0,0-.05.09.18.18,0,0,0,0,.09l.2.28-.14.11-.44-.44a4.64,4.64,0,0,0-.46-.38l.08-.14c.16.09.26.13.31.11l.06-.06L34.56,7.8s.06-.09,0-.13a.93.93,0,0,0-.11-.19l0,0,.13-.09S34.63,7.39,34.7,7.45Zm-.38,1.42.09.09a.49.49,0,0,0,.78-.06.61.61,0,0,0,.2-.39.5.5,0,0,0-.19-.36.42.42,0,0,0-.14-.09Z"/><path class="cls-1" d="M35.44,11.62s0,.08,0,.15l.08.23-.15.08a3,3,0,0,0-.57-.75l.11-.13c.1.09.17.14.22.14a.69.69,0,0,0,.27-.05l2.3-.71a1.46,1.46,0,0,0,.33.22L36.67,13a.6.6,0,0,0-.12.26.44.44,0,0,0,.05.22l-.15.08a3.19,3.19,0,0,0-.31-.47,3.91,3.91,0,0,0-.39-.45l.12-.12.21.14c.06,0,.11,0,.14,0a.1.1,0,0,0,0-.05l.34-.52-.52-.68-.58.2A.09.09,0,0,0,35.44,11.62ZM37.17,11l-.82.27.4.53.46-.7.11-.15v0Z"/><path class="cls-1" d="M37.43,15.39a4.29,4.29,0,0,0-.26-.58,3.48,3.48,0,0,0-.33-.55l.14-.11c.14.18.25.28.3.28a.11.11,0,0,0,.07,0l1.9-1L39,12.93a2.75,2.75,0,0,0-.48.15l-.08-.23a4.17,4.17,0,0,1,.41-.26l.24-.12a3.66,3.66,0,0,0,.18.41L40,14.2a2.76,2.76,0,0,0,.24.38,1.15,1.15,0,0,1-.18.1l-.51.22-.14-.19a1.92,1.92,0,0,0,.4-.31l-.26-.49-1.89,1s-.08.06-.08.1a1.58,1.58,0,0,0,0,.29l0,.07Z"/><path class="cls-1" d="M38.34,16.63c-.05,0-.07.06-.08.13V17l-.16,0c0-.18-.07-.33-.1-.46a3.42,3.42,0,0,0-.19-.44l.15-.08c.06.11.11.18.16.2a1,1,0,0,0,.28,0l2.39.1a1.57,1.57,0,0,0,.24.32l-2,1.6a.72.72,0,0,0-.2.2.48.48,0,0,0,0,.23l-.17,0a4.43,4.43,0,0,0-.13-.55,4.85,4.85,0,0,0-.22-.55l.15-.08a1.15,1.15,0,0,0,.15.2.13.13,0,0,0,.13.07l.05,0,.5-.39L39,16.63h-.68Zm1.83,0-.87,0,.21.63.66-.51.15-.1v0Z"/><path class="cls-1" d="M17,41.29l-.81-.24a1.77,1.77,0,0,1-.69-.42.56.56,0,0,1-.1-.61.65.65,0,0,1,.34-.39.73.73,0,0,1,.54-.06v0a.5.5,0,0,1-.19-.25,1.73,1.73,0,0,1-.11-.37,1.86,1.86,0,0,0-.21-.69.64.64,0,0,0-.28-.22l.07-.14.71.24c.06,0,.12.13.16.31s.07.33.1.49,0,.28.06.37a.52.52,0,0,0,.06.2.2.2,0,0,0,.13.1l.07,0,.27-.79a.18.18,0,0,0,0-.1s0,0-.05-.07l-.3-.18.09-.16c.24.11.43.18.57.23s.34.1.58.16l0,.17c-.18,0-.28,0-.32,0l0,.07-.66,2c0,.06,0,.1,0,.13a.61.61,0,0,0,.17.14l0,0-.08.14Zm-.22-1.46-.12,0a.49.49,0,0,0-.69.36.72.72,0,0,0,0,.45.5.5,0,0,0,.32.25l.17,0Z"/><path class="cls-1" d="M14.67,37.77s0-.1,0-.15l-.17-.18.1-.13.39.26.43.2-.05.16a.43.43,0,0,0-.25,0,.62.62,0,0,0-.23.16L13,39.61a1.34,1.34,0,0,0-.39-.07L13,37a.93.93,0,0,0,0-.28.4.4,0,0,0-.14-.18l.1-.13c.16.11.32.22.48.31A5.24,5.24,0,0,0,14,37l-.05.16-.25,0c-.07,0-.12,0-.14,0a.14.14,0,0,0,0,.06l-.1.61.75.42.46-.41ZM13.32,39l.64-.57-.58-.32-.13.82-.05.18,0,0Z"/><path class="cls-1" d="M11.85,36.05A.15.15,0,0,0,11.9,36a.1.1,0,0,0,0-.09,2,2,0,0,0-.16-.23l-.05,0,.14-.11c.14.14.26.26.38.36a2.84,2.84,0,0,0,.43.31l-.09.15a1.16,1.16,0,0,0-.24-.11.14.14,0,0,0-.14.06L10.8,37.85a.12.12,0,0,0,0,.14l.14.21-.13.11a1.94,1.94,0,0,0-.32-.32,2.07,2.07,0,0,0-.37-.27q0-.19.06-.48l.15-1.53a1.8,1.8,0,0,1,.07-.27l0,0h0l-1,1.2a.14.14,0,0,0,0,.15.84.84,0,0,0,.13.2l0,0-.13.11A3.61,3.61,0,0,0,9,36.74a3,3,0,0,0-.38-.27l.08-.15a1,1,0,0,0,.23.1.12.12,0,0,0,.14-.05l1-1.22c.14-.17.28-.34.42-.53l.06-.09.41.23a5.52,5.52,0,0,0-.16.93l-.14,1.46a1.27,1.27,0,0,1,0,.26l0,.05h0Z"/><path class="cls-1" d="M9.11,32.66a1.66,1.66,0,0,1,.4,1.09,1.2,1.2,0,0,1-.49.94,1.47,1.47,0,0,1-2.19-.27,3.74,3.74,0,0,1-.22-.32l-.1-.18-.1-.19-.08-.16A4.89,4.89,0,0,1,7,33.2l.18.15a1.71,1.71,0,0,0-.36.47,1,1,0,0,0,.27.52.74.74,0,0,0,.64.29,1.42,1.42,0,0,0,.79-.35A1.43,1.43,0,0,0,9,33.53a.79.79,0,0,0-.13-.76.67.67,0,0,0-.41-.26,1,1,0,0,0-.56.11l-.12-.19A3.92,3.92,0,0,1,8.44,32,2.79,2.79,0,0,1,9.11,32.66Z"/><path class="cls-1" d="M5.69,30.17,5,30.54l-.07.05a.07.07,0,0,0,0,.06.8.8,0,0,0,0,.23l0,.05L4.75,31a4.25,4.25,0,0,0-.23-.52A3.24,3.24,0,0,0,4.24,30l.14-.11a.59.59,0,0,0,.17.18.12.12,0,0,0,.14,0l1.86-.94a.13.13,0,0,0,.09-.1,1,1,0,0,0,0-.22v0l.16,0a3.75,3.75,0,0,0,.21.5c.08.15.18.32.3.5l-.15.11c-.12-.17-.2-.25-.25-.25l-.08,0L5.94,30l.61,1.19.85-.42.07,0a.15.15,0,0,0,0-.07,1,1,0,0,0-.05-.23l0-.05.18-.05a3.82,3.82,0,0,0,.23.53,3.87,3.87,0,0,0,.28.47L8,31.47a1,1,0,0,0-.17-.18.14.14,0,0,0-.15,0l-1.86.94a.1.1,0,0,0-.08.1.6.6,0,0,0,0,.22v0l-.16,0a3.75,3.75,0,0,0-.21-.5,5.21,5.21,0,0,0-.29-.49l.15-.12a.86.86,0,0,0,.17.21.11.11,0,0,0,.14,0l.75-.38Z"/><path class="cls-1" d="M6.2,26.69a1.51,1.51,0,0,1-.09,1.12,1.32,1.32,0,0,1-.88.64,1.48,1.48,0,0,1-1.14-.12,1.4,1.4,0,0,1-.68-.92,1.51,1.51,0,0,1,.09-1.12,1.33,1.33,0,0,1,.89-.63,1.51,1.51,0,0,1,1.13.11A1.37,1.37,0,0,1,6.2,26.69Zm-2.54.69a.7.7,0,0,0,.46.53,1.45,1.45,0,0,0,.85,0,1.6,1.6,0,0,0,.8-.44A.76.76,0,0,0,6,26.73a.73.73,0,0,0-.46-.54,1.54,1.54,0,0,0-.85,0,1.65,1.65,0,0,0-.8.45A.73.73,0,0,0,3.66,27.38Z"/><rect class="cls-1" x="13.19" y="29.5" width="2.13" height="2.13" transform="translate(25.79 -1.13) rotate(45)"/><rect class="cls-1" x="29.66" y="13.03" width="2.13" height="2.13" transform="translate(18.97 -17.6) rotate(45)"/><g id="r_origi" data-name="r origi"><polygon class="cls-1" points="18.65 17.5 18.65 17.5 18.65 17.5 18.65 17.5"/><path class="cls-1" d="M18.65,17.5Zm.12.06,0,.23Z"/><path class="cls-1" d="M17.66,13.66a7.74,7.74,0,0,1-1.45,2.05l-.13.14a9.65,9.65,0,0,1-2.88,2.09l0-.09a4.67,4.67,0,0,0,2.46-4.14C15.61,11,13.7,8,11.13,8h-.07a.94.94,0,0,0-.53.1.64.64,0,0,0-.27.41.61.61,0,0,0,.14.57l.14.12.71.53a13.09,13.09,0,0,1,1.41,1.12l0,0,.07.09a1.11,1.11,0,0,1,.24.69,1.13,1.13,0,0,1-.24.69l-.07.08a14.47,14.47,0,0,1-2.56,1.95l-.71.43-.06-.08,1.32-1.14a1.13,1.13,0,0,0,.11-.11.29.29,0,0,0,.09-.21.33.33,0,0,0,0-.15v0L10.79,13h0a5.18,5.18,0,0,0-.92-.82l-.13-.1-.2-.15c-.43-.31-.87-.63-.87-1.22a.81.81,0,0,1,0-.16v0A3.79,3.79,0,0,1,10,8.11L10.14,8c.21-.17.43-.33.67-.49a5.37,5.37,0,0,1,2.49-1,4.52,4.52,0,0,1,2.12.38A4.58,4.58,0,0,1,17.57,9,6,6,0,0,1,17.66,13.66Z"/><polygon class="cls-1" points="17.21 17.09 17.21 17.09 17.21 17.09 17.21 17.09"/><path class="cls-1" d="M28.48,22.24h0A3.6,3.6,0,0,1,26.09,21a6.07,6.07,0,0,1-1-2.6c-.09-.47-.25-.91-.38-1.36a3.71,3.71,0,0,0-.58-1.3,2.2,2.2,0,0,0-.53-.48,4.63,4.63,0,0,0-.59-.39,2.2,2.2,0,0,0-1.26-.24,4.37,4.37,0,0,1,1-.7c.43-.22.87-.42,1.28-.67a2.24,2.24,0,0,0,1-1.06,2.47,2.47,0,0,0,.05-1.45,3.8,3.8,0,0,0-.68-1.27,3.5,3.5,0,0,1-.64-1.26,2.72,2.72,0,0,1-.06-.7c0-.22.08-.46.13-.7a3,3,0,0,1,.2-.67.9.9,0,0,1,.47-.47L25,5.51l-.43,0a4.21,4.21,0,0,0-.71.12c.43-.2.83-.39.91-.44l0-.08c-.12.07-1,.48-1.61.74h0A6.64,6.64,0,0,0,21,7.13a5.91,5.91,0,0,0-1.89,2.93h0a16.7,16.7,0,0,0-.55,3,24.17,24.17,0,0,0-.14,3.18v0l-1.26.8.05.09.9-.4.31-.14c0,.36,0,.73.07,1.09a5,5,0,0,1-.06,1.73A3.76,3.76,0,0,1,17.63,21a1.52,1.52,0,0,1-1.66.43c-.58-.24-.94-.8-1.46-1.16A3.66,3.66,0,0,0,10.88,20a5.41,5.41,0,0,0-1.52,1.11L8,22.43l.05.05a3.05,3.05,0,0,1,2.18-.68,3.66,3.66,0,0,1,2.19.74,11.61,11.61,0,0,0,.92.76,2.52,2.52,0,0,0,1.13.37A3.24,3.24,0,0,0,16.73,23a5.12,5.12,0,0,0,1.74-2.47,6.58,6.58,0,0,0,.34-1.7,6.92,6.92,0,0,0,0-1l-.06-.74V17l0-.48a2,2,0,0,1,.35-.1,1.37,1.37,0,0,1,.93.12,3.79,3.79,0,0,1,.78.57,3.44,3.44,0,0,1,1,1.66c.18.63.28,1.28.45,1.92h0a3.86,3.86,0,0,0,.89,1.74,3.25,3.25,0,0,0,1.73.94,4.23,4.23,0,0,0,2-.14,4.6,4.6,0,0,0,.94-.34,2.54,2.54,0,0,0,.8-.55l0,0,.07-.07ZM24.55,5.61h0ZM18.65,17.5ZM21,14.58c-.8.5-1.58,1-2.37,1.52,0-.27,0-.54,0-.81a19.68,19.68,0,0,1,.28-3.43c.09-.48.19-1,.33-1.44a3.5,3.5,0,0,1,1.2-1.78,2.71,2.71,0,0,0,.24,1.16,4,4,0,0,0,.32.57,5,5,0,0,0,.41.5,2.72,2.72,0,0,1,.65.91,2.61,2.61,0,0,1,.19,1.1,1.7,1.7,0,0,1-.34,1A3.7,3.7,0,0,1,21,14.58Z"/><polygon class="cls-1" points="24.55 5.61 24.54 5.61 24.54 5.61 24.55 5.61"/><path class="cls-1" d="M28.48,22.29l0,0,0,0h-.07l.05,0h.06Z"/><path class="cls-1" d="M28.45,22.29v0l0,0ZM24.54,5.61Z"/><polygon class="cls-1" points="18.65 17.5 18.65 17.5 18.65 17.5 18.65 17.5"/></g><path class="cls-1" d="M33.74,24.78v0h0a4,4,0,0,1-2.11-3.49v-.1l-.36.25,0,0,0,0-.11.08-.2.18a5,5,0,0,0-.38.45,4.58,4.58,0,0,0-.35.54,4,4,0,0,0-.29.55l0,.08a11.24,11.24,0,0,0-.59,7c.06.38.12.77.17,1.17l-.32,0-.91-.09a14,14,0,0,1-.24-2.62,13.28,13.28,0,0,1,.65-4.21,7.91,7.91,0,0,1,.67-1.46l.24-.37-.06,0a2.34,2.34,0,0,0-.66-.09,2,2,0,0,0-1,.26,5.55,5.55,0,0,1-2.31.49,5.85,5.85,0,0,1-1.58-.22c-.39-.08-1-.29-1.74-.51s-1.27-.41-1.76-.53l-.18,0a2,2,0,0,0-.8,0l-.21.07a1.9,1.9,0,0,0-.85.58l-.07.09a21.47,21.47,0,0,0-1.82,2.93l.09.05a1.77,1.77,0,0,1,1-.82,1.81,1.81,0,0,1,1.07-.08c.3.07.74.21,1.26.38.85.26,1.9.59,2.6.72l.18,0h.1a5.4,5.4,0,0,0,.83.06,5.09,5.09,0,0,0,2.79-.79,10.44,10.44,0,0,0-.78,2.78,14.14,14.14,0,0,0-.15,2.08c0,.24,0,.49,0,.73-.45-.09-.88-.18-1.29-.28-.63-.15-1.28-.32-1.94-.51h-.07L21.69,30c-1-.28-2-.61-3-1l-.18-.06.13.14A23.41,23.41,0,0,0,21,30.65l.29.17A37.43,37.43,0,0,0,25.61,33,7.77,7.77,0,0,1,26,35.54a7.26,7.26,0,0,1-.85,3.51h-.94v.31H25a3.27,3.27,0,0,1-.29.39l-.07.09h.12a2.83,2.83,0,0,0,1.39-.48h4.69v-.31H26.53A5.69,5.69,0,0,0,27.91,37a8.72,8.72,0,0,0,.56-2.81V34l.78.17.35.06A14.92,14.92,0,0,1,29,38.08l.2,0a15,15,0,0,0,.57-3.86,7.4,7.4,0,0,0,.75.1l.39,0h.38a4.74,4.74,0,0,0,.81-.93,11.91,11.91,0,0,0,1.64-5.57c0-.29,0-.6,0-.9A15.73,15.73,0,0,0,33.74,24.78Zm-1.8,6.75a18.36,18.36,0,0,1-2.26,0h-.07c-.06-.41-.12-.82-.19-1.21a12.06,12.06,0,0,1,.25-6,5,5,0,0,0,2.27,3.35Z"/><path class="cls-1" d="M28.59,22.25a1,1,0,0,1,.89.43l-2.19.9-.36-1"/></svg>